<?xml version="1.0" standalone="no"?>
<!DOCTYPE svg PUBLIC "-//W3C//DTD SVG 20010904//EN"
 "http://www.w3.org/TR/2001/REC-SVG-20010904/DTD/svg10.dtd">
<svg version="1.0" xmlns="http://www.w3.org/2000/svg"
 width="600.000000pt" height="519.000000pt" viewBox="0 0 600.000000 519.000000"
 preserveAspectRatio="xMidYMid meet">

<g transform="translate(0.000000,519.000000) scale(0.100000,-0.100000)"
fill="#000000" stroke="none">
<path d="M2836 5179 c-1098 -75 -1946 -367 -2131 -734 l-30 -60 -6 -240 c-4
-187 -9 -251 -22 -289 -14 -40 -17 -90 -18 -255 l0 -206 -85 -55 c-104 -67
-209 -175 -249 -255 l-30 -60 -3 -313 c-4 -356 -1 -377 69 -481 23 -35 72 -88
110 -119 l69 -57 -1 -65 0 -65 -82 -40 c-176 -86 -326 -212 -387 -326 l-35
-64 0 -350 0 -350 34 -63 c185 -341 917 -607 1946 -708 218 -21 883 -30 1130
-15 1124 68 1992 362 2180 736 28 57 30 67 33 211 l4 150 76 38 c177 88 341
225 395 332 15 29 31 80 37 115 12 79 13 479 0 576 -15 114 -73 211 -179 298
l-61 50 0 142 0 141 84 56 c107 73 208 177 244 253 26 57 27 63 32 293 5 191
9 244 23 281 16 42 18 81 15 380 l-3 334 -34 63 c-185 341 -913 606 -1946 708
-188 18 -975 27 -1179 13z m1104 -23 c942 -91 1640 -308 1916 -598 34 -35 74
-88 90 -118 25 -48 29 -66 29 -140 0 -74 -4 -93 -29 -144 -66 -135 -251 -275
-516 -389 -703 -304 -1916 -422 -2995 -291 -626 75 -1166 236 -1469 438 -105
70 -208 177 -244 253 -39 84 -38 184 4 268 177 361 1070 661 2187 735 201 13
834 4 1027 -14z m-3243 -1313 c-1 -65 -3 -14 -3 112 0 127 2 180 3 118 2 -62
2 -165 0 -230z m5259 -175 c-13 -30 -14 -12 -15 199 -1 166 3 240 12 260 10
23 12 -9 15 -200 2 -179 -1 -233 -12 -259z m-5206 174 l-1 -237 -19 35 c-17
32 -19 58 -20 270 l0 235 20 -33 c19 -30 20 -50 20 -270z m5180 4 l0 -234 -35
-42 -35 -42 0 237 0 236 32 40 c17 21 33 39 35 39 2 0 3 -105 3 -234z m-5100
-90 l0 -240 -35 34 -35 34 0 240 0 240 35 -34 35 -34 0 -240z m5019 -3 l0
-238 -35 -28 -34 -29 0 238 0 238 27 28 c15 15 30 28 35 28 4 0 8 -107 7 -237z
m-4939 -65 c0 -131 -3 -238 -7 -238 -4 0 -20 12 -35 27 l-28 27 0 238 0 239
35 -28 35 -28 0 -237z m4856 -234 c-3 -7 -25 -26 -50 -44 l-46 -31 0 243 0
243 48 31 47 31 3 -231 c1 -127 0 -236 -2 -242z m-4747 158 c1 -193 -2 -241
-12 -235 -7 4 -29 19 -50 33 l-37 25 0 242 0 241 49 -31 50 -32 0 -243z m4641
6 l0 -243 -40 -22 c-21 -13 -41 -23 -44 -23 -4 0 -6 108 -6 239 l0 240 43 24
c23 14 43 25 45 26 1 1 2 -108 2 -241z m-4961 47 c104 -235 486 -451 1040
-589 411 -103 845 -160 1311 -173 129 -3 244 -10 255 -14 11 -5 -17 -6 -65 -4
-47 3 -170 7 -274 10 -544 15 -1116 108 -1541 251 -307 102 -519 218 -651 356
-100 103 -136 198 -118 305 l8 48 7 -71 c4 -39 16 -93 28 -119z m441 -115 c0
-132 -3 -240 -7 -240 -3 0 -26 11 -50 25 l-43 26 0 240 0 239 50 -25 50 -25 0
-240z m4420 10 l0 -240 -50 -25 c-27 -14 -52 -25 -55 -25 -3 0 -5 108 -5 240
l0 240 48 24 c26 14 50 25 55 26 4 0 7 -108 7 -240z m-4349 199 l49 -21 0
-244 0 -243 -52 23 -53 23 -3 242 c-1 132 0 241 3 241 4 0 29 -10 56 -21z
m4229 -253 l0 -243 -47 -21 -48 -21 -8 27 c-4 15 -7 124 -5 242 l3 215 50 21
c28 12 51 22 53 23 1 0 2 -109 2 -243z m-4115 205 l50 -19 3 -241 c1 -133 0
-241 -4 -241 -3 0 -28 8 -55 17 l-49 18 0 242 c0 134 1 243 3 243 1 0 25 -9
52 -19z m3995 -254 l0 -243 -52 -19 c-29 -10 -59 -20 -65 -23 -10 -3 -13 49
-13 240 l0 244 63 21 c34 12 63 22 65 22 1 1 2 -108 2 -242z m-3863 206 l53
-17 0 -242 0 -243 -27 9 c-16 4 -43 14 -60 20 l-33 12 0 239 c0 131 3 239 7
239 3 0 30 -8 60 -17z m3723 -256 l0 -242 -97 -28 c-54 -15 -101 -28 -105 -27
-5 0 -8 108 -8 239 l0 239 73 22 c39 11 83 25 97 30 14 5 28 9 33 9 4 1 7
-108 7 -242z m-4523 -104 c-1 -65 -3 -14 -3 112 0 127 2 180 3 118 2 -62 2
-165 0 -230z m981 306 l82 -22 0 -244 0 -243 -24 6 c-13 3 -56 16 -97 28 l-74
23 -3 243 c-2 228 -1 242 15 237 10 -3 55 -15 101 -28z m-929 -304 l0 -240
-19 35 c-17 32 -19 57 -19 265 l-1 230 20 -25 c18 -23 20 -42 19 -265z m4251
41 l0 -244 -85 -21 c-46 -11 -91 -21 -100 -21 -13 0 -15 31 -15 240 l0 240 28
6 c25 6 164 41 170 43 1 1 2 -109 2 -243z m-3118 212 l98 -23 0 -243 0 -243
-35 7 c-20 3 -66 14 -103 23 l-67 17 -3 242 c-1 133 1 242 5 242 5 0 52 -10
105 -22z m4074 -420 c-13 -30 -14 -13 -15 193 -1 167 2 228 12 238 19 19 23
-386 3 -431z m-1180 -85 c-2 -2 -46 -12 -97 -22 l-94 -18 -3 239 c-1 131 -6
238 -10 238 -4 0 -6 -107 -4 -239 l3 -239 -63 -11 c-35 -5 -82 -13 -105 -17
l-43 -7 0 245 0 244 123 18 c67 10 160 25 207 35 l85 17 3 -240 c1 -131 1
-241 -2 -243z m-2653 455 l77 -12 0 -244 0 -243 -42 6 c-24 4 -70 12 -103 19
l-60 12 -3 243 -2 243 27 -5 c16 -4 63 -12 106 -19z m3807 -206 l0 -229 -35
-39 -34 -39 -1 235 0 234 32 33 c18 18 33 33 35 33 2 0 3 -103 3 -228z m-5100
-86 l0 -240 -35 34 -35 34 0 240 0 240 35 -34 35 -34 0 -240z m1469 263 c36
-5 76 -12 89 -15 l22 -4 0 -240 0 -240 -27 1 c-16 0 -59 6 -98 12 l-70 12 -3
243 c-2 181 1 242 10 242 6 0 41 -5 77 -11z m356 -44 c83 -7 207 -17 278 -21
l127 -7 0 -245 0 -245 -46 7 c-26 3 -73 6 -105 6 l-59 0 -2 243 -3 242 -2
-242 -3 -242 -33 4 c-17 3 -62 7 -99 11 l-68 6 -2 241 -3 242 -2 -243 -3 -243
-48 7 c-26 3 -72 9 -102 12 l-55 7 -3 244 -2 243 42 -6 c24 -3 111 -13 193
-21z m1695 -215 l0 -240 -22 -4 c-40 -8 -200 -25 -300 -32 l-98 -7 0 241 0
240 68 7 c37 3 84 8 105 11 l37 6 2 -244 3 -243 2 242 3 242 58 6 c31 4 62 8
67 10 6 2 25 4 43 4 l32 1 0 -240z m1500 -3 l0 -233 -28 -27 c-15 -15 -31 -27
-35 -27 -4 0 -7 106 -7 235 l0 236 28 24 c15 13 30 25 35 25 4 0 7 -105 7
-233z m-4940 -68 c0 -132 -3 -239 -7 -239 -4 0 -20 12 -35 27 l-28 27 0 238 0
239 35 -27 35 -26 0 -239z m3010 26 l0 -245 -77 0 c-43 0 -88 -3 -100 -6 l-23
-6 0 245 0 246 78 4 c42 1 87 4 100 5 l22 2 0 -245z m-719 225 l69 0 0 -240 0
-240 -100 0 -100 0 0 246 0 247 31 -7 c17 -3 62 -6 100 -6z m499 -235 l0 -245
-100 0 -100 0 0 240 0 239 98 4 c53 1 98 4 100 5 1 1 2 -108 2 -243z m-210 -4
l0 -239 -58 -4 c-32 -2 -76 -2 -99 0 l-42 4 -3 239 -3 239 103 0 102 0 0 -239z
m2280 -9 l0 -239 -44 -31 c-24 -18 -47 -32 -50 -32 -3 0 -6 107 -6 239 l0 239
48 31 c26 17 48 31 50 31 1 0 2 -107 2 -238z m-4750 -80 l0 -242 -50 32 -50
33 0 243 0 242 50 -32 50 -33 0 -243z m-311 29 c162 -316 843 -585 1746 -690
330 -38 474 -46 880 -46 405 0 553 8 875 46 501 58 928 162 1248 304 46 20 86
35 88 32 8 -8 -119 -127 -182 -172 -305 -213 -851 -377 -1514 -454 -340 -40
-450 -46 -880 -46 -417 0 -514 5 -845 41 -776 85 -1410 297 -1673 562 -92 92
-126 163 -126 262 0 63 5 85 29 135 36 72 130 170 235 243 l75 53 6 -103 c5
-91 9 -111 38 -167z m4947 -258 c-3 -7 -23 -21 -46 -33 l-40 -20 0 243 0 243
43 21 42 20 3 -231 c1 -127 0 -236 -2 -243z m-4560 431 l44 -26 0 -239 c0
-131 -3 -239 -6 -239 -3 0 -25 12 -50 26 l-44 26 0 239 c0 131 3 239 6 239 3
0 25 -12 50 -26z m4447 -498 c-10 -6 -35 -18 -55 -28 l-38 -17 0 242 0 243 53
26 52 25 3 -240 c2 -222 1 -242 -15 -251z m-4283 182 c0 -148 -4 -238 -10
-238 -5 0 -30 10 -55 22 l-45 22 0 243 0 243 55 -27 55 -27 0 -238z m4180 8
c0 -223 -1 -244 -17 -249 -10 -3 -35 -12 -55 -21 l-38 -16 0 243 0 243 48 21
c26 12 50 21 55 22 4 1 7 -109 7 -243z m-4092 198 l32 -13 0 -241 0 -241 -22
7 c-13 3 -38 12 -55 20 l-33 13 0 241 0 241 23 -7 c12 -3 37 -12 55 -20z
m3972 -244 l0 -240 -37 -16 c-21 -8 -50 -18 -65 -21 l-28 -5 0 240 0 240 58
20 c31 11 60 21 65 21 4 1 7 -107 7 -239z m-3810 -51 c0 -131 -3 -239 -7 -239
-3 0 -30 8 -60 17 l-53 17 0 242 0 243 60 -21 60 -20 0 -239z m3670 1 l0 -239
-87 -26 c-49 -15 -96 -29 -105 -31 -17 -5 -18 11 -18 238 l0 243 93 26 c50 15
98 27 105 28 9 1 12 -53 12 -239z m-3589 215 c24 -7 63 -19 87 -25 l42 -11 0
-241 0 -240 -32 6 c-17 3 -62 15 -100 27 l-68 20 0 239 c0 266 -5 250 71 225z
m347 -90 c1 -1 1 -110 0 -242 l-3 -239 -102 24 -103 23 0 243 0 243 103 -24
c56 -14 103 -26 105 -28z m3020 -187 l-3 -242 -67 -17 c-37 -9 -84 -20 -103
-23 l-35 -7 2 242 3 243 95 22 c52 12 98 23 103 23 4 1 6 -108 5 -241z m-2808
-91 l0 -240 -47 6 c-27 3 -72 11 -100 17 l-53 12 0 242 0 242 100 -20 100 -19
0 -240z m2588 41 l-3 -243 -52 -11 c-28 -6 -72 -15 -97 -18 l-46 -7 0 240 0
241 23 5 c23 6 156 32 170 34 4 1 6 -108 5 -241z m-375 195 c-7 -2 -19 -2 -25
0 -7 3 -2 5 12 5 14 0 19 -2 13 -5z m166 -233 c2 -189 -1 -241 -11 -245 -7 -2
-55 -10 -105 -18 l-93 -14 0 242 0 243 93 15 c50 8 97 15 104 16 8 1 11 -65
12 -239z m-2248 218 l89 -12 0 -244 0 -244 -27 6 c-16 3 -61 10 -100 16 l-73
12 0 239 c0 172 3 239 11 239 7 0 52 -5 100 -12z m2002 5 c-7 -2 -19 -2 -25 0
-7 3 -2 5 12 5 14 0 19 -2 13 -5z m-80 -10 c-7 -2 -19 -2 -25 0 -7 3 -2 5 12
5 14 0 19 -2 13 -5z m-95 -10 c-10 -2 -28 -2 -40 0 -13 2 -5 4 17 4 22 1 32
-1 23 -4z m202 -236 l0 -244 -94 -11 c-52 -7 -98 -12 -103 -12 -4 0 -7 108 -5
240 l3 239 32 6 c18 3 61 9 97 14 36 5 66 9 68 10 1 0 2 -109 2 -242z m-1670
209 c85 -8 206 -18 268 -22 l112 -7 0 -238 0 -239 -67 0 c-38 0 -85 3 -105 6
l-38 7 -2 236 -3 236 -2 -239 -3 -239 -62 7 c-33 3 -78 6 -99 6 l-39 0 -2 243
-3 242 -2 -239 -3 -239 -73 7 c-39 4 -87 9 -104 13 l-33 5 0 240 0 241 53 -6
c28 -4 122 -13 207 -21z m1358 17 c-10 -2 -28 -2 -40 0 -13 2 -5 4 17 4 22 1
32 -1 23 -4z m-141 -10 c-20 -2 -52 -2 -70 0 -17 2 0 4 38 4 39 0 53 -2 32 -4z
m-209 -10 c-43 -2 -113 -2 -155 0 -43 1 -8 3 77 3 85 0 120 -2 78 -3z m442
-233 l0 -239 -32 -5 c-18 -3 -63 -8 -100 -11 l-68 -7 0 240 0 241 53 5 c28 3
66 8 82 9 72 9 65 33 65 -233z m-210 -19 l0 -238 -52 -7 c-29 -3 -77 -6 -105
-6 l-53 0 0 240 0 239 73 4 c39 1 87 4 105 5 l32 2 0 -239z m-682 219 l32 0 0
-240 0 -240 -84 0 c-46 0 -91 3 -100 6 -14 5 -16 37 -16 247 l0 240 68 -6 c37
-4 82 -7 100 -7z m462 -229 l0 -238 -37 -7 c-21 -3 -66 -6 -100 -6 l-63 0 0
240 0 239 78 4 c42 1 87 4 100 5 l22 2 0 -239z m-210 -11 l0 -240 -105 0 -105
0 0 240 0 240 105 0 105 0 0 -240z m-3123 -122 c-1 -62 -3 -12 -3 112 0 124 2
174 3 113 2 -62 2 -164 0 -225z m53 -8 l-1 -235 -19 35 c-17 32 -19 58 -20
265 l0 230 20 -30 c18 -28 20 -47 20 -265z m5211 -171 c-7 -16 -10 51 -10 212
-1 130 2 239 7 243 11 11 14 -427 3 -455z m-58 -98 l-28 -36 -3 239 -2 240 27
28 28 29 3 -232 2 -232 -27 -36z m-5073 175 l-1 -241 -29 33 -30 32 0 237 0
237 30 -29 30 -29 0 -240z m4985 -265 l-35 -36 0 243 0 242 33 29 32 29 3
-236 2 -236 -35 -35z m-4922 456 c15 -13 17 -38 17 -257 l0 -242 -34 29 -35
28 0 238 c-1 259 -4 247 52 204z m4877 -257 l0 -239 -45 -31 -45 -31 0 243 0
243 43 27 c23 15 43 28 45 28 1 0 2 -108 2 -240z m-4762 178 c22 -11 22 -12
22 -255 0 -193 -3 -243 -12 -237 -7 4 -32 20 -55 36 l-43 29 0 240 0 241 33
-22 c17 -11 42 -26 55 -32z m4652 -251 l0 -243 -35 -17 c-20 -9 -38 -17 -40
-17 -3 0 -5 108 -5 240 l0 240 38 19 c20 11 38 20 40 21 1 0 2 -109 2 -243z
m-4520 -65 l0 -243 -50 28 -50 28 0 241 0 242 50 -27 50 -26 0 -243z m4954
220 c35 -35 79 -91 97 -125 30 -56 34 -70 34 -142 0 -97 -27 -162 -101 -244
-244 -271 -854 -484 -1656 -580 -332 -40 -446 -46 -888 -46 -453 1 -623 10
-960 55 -497 67 -948 188 -1243 337 -178 88 -341 222 -396 322 l-24 44 44 -27
c97 -61 294 -148 452 -201 370 -123 787 -201 1332 -247 233 -20 922 -17 1170
5 929 83 1617 296 1911 591 91 92 127 164 133 263 4 85 2 86 95 -5z m-528 7
c-3 -17 -6 -128 -6 -246 l0 -214 -46 -19 c-25 -11 -47 -20 -50 -20 -2 0 -5
107 -6 238 l-3 237 50 27 c64 35 69 34 61 -3z m-4346 -19 l40 -20 0 -240 c0
-132 -2 -240 -4 -240 -2 0 -24 9 -50 20 l-46 21 0 239 c0 160 3 240 10 240 6
0 29 -9 50 -20z m4220 -253 l0 -243 -37 -13 c-21 -8 -44 -16 -50 -18 -10 -4
-13 47 -13 236 l0 242 43 19 c23 10 45 19 50 19 4 1 7 -108 7 -242z m-4060
-53 l0 -244 -52 20 c-29 11 -54 20 -55 20 -2 0 -3 110 -3 244 l0 244 55 -21
55 -20 0 -243z m3947 -230 c-2 -2 -33 -15 -70 -29 l-67 -25 0 244 0 243 68 25
67 25 3 -240 c1 -132 1 -241 -1 -243z m-3857 441 l35 -12 3 -242 c1 -132 -1
-241 -4 -241 -4 0 -31 8 -61 17 l-53 17 0 244 0 243 23 -7 c12 -4 38 -12 57
-19z m125 -38 c28 -9 69 -21 93 -27 l42 -11 0 -239 c0 -217 -2 -240 -17 -240
-9 0 -56 12 -105 27 l-88 26 0 245 c0 191 3 243 13 240 6 -3 35 -12 62 -21z
m3585 -217 l0 -239 -87 -26 c-49 -15 -96 -29 -105 -31 -17 -5 -18 11 -18 238
l0 243 93 27 c50 14 98 27 105 27 9 1 12 -53 12 -239z m-3242 -109 c2 -225 1
-241 -15 -241 -19 0 -79 13 -145 31 l-38 10 0 243 0 242 98 -21 97 -22 3 -242z
m3020 47 l-3 -242 -90 -23 c-49 -12 -93 -23 -97 -23 -5 0 -8 109 -8 243 l0
243 88 21 c48 11 93 21 100 22 10 1 12 -50 10 -241z m-2880 168 c40 -7 75 -15
77 -18 3 -3 4 -113 3 -245 l-3 -239 -102 19 -103 19 0 245 0 245 28 -7 c15 -4
60 -12 100 -19z m2670 -218 l-3 -242 -85 -18 c-47 -9 -93 -17 -102 -18 -17 0
-18 18 -18 243 l0 243 83 16 c45 8 92 16 105 17 l22 1 -2 -242z m-2339 168
l176 -22 3 -244 2 -243 -67 7 c-38 4 -83 9 -100 12 l-33 6 0 239 c0 153 -4
239 -10 239 -6 0 -10 -87 -10 -240 l0 -239 -27 4 c-45 8 -157 25 -165 25 -5 0
-8 111 -8 246 l0 246 31 -7 c17 -4 111 -17 208 -29z m2121 -209 l0 -243 -83
-12 c-46 -7 -91 -12 -100 -12 -16 0 -17 21 -17 240 0 132 1 240 3 241 19 4
158 27 175 28 l22 1 0 -243z m-210 -30 l0 -244 -94 -11 c-52 -7 -100 -12 -106
-12 -7 0 -10 74 -8 243 l3 242 85 11 c47 6 93 12 103 13 16 1 17 -17 17 -242z
m-1490 198 c58 -3 124 -8 148 -11 l42 -5 0 -240 0 -239 -69 0 c-38 0 -83 3
-100 6 l-31 7 -2 236 -3 236 -2 -238 -3 -239 -98 7 c-53 4 -100 9 -104 12 -5
2 -8 113 -8 245 l0 241 63 -6 c34 -4 109 -9 167 -12z m1270 -224 l0 -239 -27
-6 c-16 -2 -63 -8 -106 -11 l-77 -7 2 244 3 243 60 6 c33 3 79 6 103 7 l42 2
0 -239z m-220 -20 l0 -238 -46 -7 c-26 -3 -71 -6 -100 -6 l-54 0 0 239 0 240
38 4 c20 2 65 4 100 5 l62 2 0 -239z m-210 -10 l0 -238 -31 -7 c-17 -3 -65 -6
-107 -6 l-75 0 7 240 c5 165 4 240 -3 240 -8 0 -11 -79 -11 -240 l0 -240 -100
0 -100 0 -2 243 -3 242 -2 -242 -3 -243 -89 0 c-49 0 -96 3 -105 6 -14 5 -16
36 -16 245 l0 239 320 0 320 0 0 -239z m-2723 -128 c-1 -65 -3 -14 -3 112 0
127 2 180 3 118 2 -62 2 -165 0 -230z m5259 -171 c-14 -24 -15 -5 -16 205 0
165 4 240 13 260 10 23 12 -10 15 -205 2 -190 0 -237 -12 -260z m-5208 177
c-3 -229 -3 -233 -20 -202 -16 28 -18 62 -18 265 l0 233 20 -31 c19 -30 20
-46 18 -265z m5182 3 l0 -239 -35 -39 -34 -39 -1 238 0 238 33 39 c17 22 33
40 35 40 1 0 2 -107 2 -238z m-5258 36 c4 -147 7 -180 25 -218 145 -319 767
-586 1644 -704 367 -50 533 -60 994 -60 436 0 605 9 930 50 251 31 620 104
783 153 34 11 62 17 62 15 0 -8 -160 -84 -270 -127 -450 -177 -1048 -281
-1750 -306 -796 -29 -1573 65 -2155 261 -358 120 -624 291 -716 461 -31 57
-34 69 -34 147 0 74 4 92 29 140 35 67 131 169 211 223 61 42 225 136 237 137
3 0 8 -78 10 -172z m158 -132 l-1 -241 -34 37 -35 38 0 237 0 237 35 -34 35
-34 0 -240z m4993 -258 c-15 -15 -30 -28 -35 -28 -4 0 -8 107 -8 237 l0 237
33 27 32 27 3 -236 2 -236 -27 -28z m-4930 449 c15 -13 17 -38 17 -256 l0
-242 -35 27 -35 26 0 240 c0 260 -3 248 53 205z m4877 -256 c0 -237 0 -239
-22 -253 -13 -8 -35 -23 -50 -33 l-28 -17 0 240 0 241 43 29 c23 17 45 31 50
31 4 1 7 -106 7 -238z m-4765 178 c19 -10 20 -18 17 -249 -1 -132 -5 -240 -8
-240 -3 0 -25 14 -50 30 l-44 31 0 240 0 241 33 -22 c17 -11 41 -26 52 -31z
m4651 -486 c-3 -7 -23 -21 -46 -33 l-40 -20 0 243 0 243 43 21 42 20 3 -231
c1 -127 0 -236 -2 -243z m-4516 169 l0 -242 -50 25 -50 25 0 244 0 244 50 -27
50 -26 0 -243z m4420 15 l0 -243 -55 -27 -55 -27 0 243 0 243 53 26 c28 15 53
27 55 27 1 1 2 -108 2 -242z m-4302 -66 c2 -193 0 -242 -10 -238 -7 3 -32 13
-55 22 l-43 17 0 244 0 244 53 -23 52 -23 3 -243z m4182 9 l0 -239 -27 -14
c-16 -8 -38 -18 -50 -21 l-23 -7 0 241 0 241 43 19 c23 10 45 19 50 19 4 1 7
-107 7 -239z m-4060 -56 l0 -243 -52 18 -53 18 -3 245 -2 246 55 -21 55 -20 0
-243z m3938 5 l-3 -241 -63 -24 -62 -23 2 246 3 246 50 18 c28 10 56 18 63 18
10 1 12 -50 10 -240z m-3848 206 l35 -12 3 -242 c1 -132 -1 -241 -4 -241 -4 0
-31 8 -61 17 l-53 17 0 244 0 243 23 -7 c12 -4 38 -12 57 -19z m3710 -250 l0
-244 -87 -26 c-49 -15 -96 -29 -105 -31 -17 -5 -18 11 -18 238 l0 244 103 31
c56 17 103 31 105 32 1 0 2 -109 2 -244z m-3540 199 l75 -22 3 -241 c2 -189 0
-241 -10 -241 -7 0 -52 12 -100 26 l-88 27 0 244 0 244 23 -7 c12 -4 56 -18
97 -30z m195 -49 c39 -9 78 -18 88 -21 16 -5 17 -25 17 -245 0 -214 -2 -239
-16 -239 -9 0 -56 9 -105 21 l-89 21 0 245 c0 228 1 244 18 239 9 -3 49 -13
87 -21z m3123 -217 l-3 -242 -90 -23 c-49 -12 -93 -23 -97 -23 -5 0 -8 109 -8
243 l0 243 83 21 c45 11 90 21 100 22 16 1 17 -15 15 -241z m-2913 172 c33 -6
70 -13 83 -16 l22 -4 0 -242 0 -241 -47 7 c-27 3 -72 11 -100 18 l-53 11 0
244 c0 228 1 244 18 239 9 -2 44 -10 77 -16z m2695 -223 l0 -243 -88 -17 c-49
-9 -94 -17 -100 -17 -9 0 -12 65 -12 243 l0 243 83 16 c45 8 90 16 100 17 16
1 17 -17 17 -242z m-2452 183 l82 -12 0 -245 0 -245 -27 6 c-16 3 -61 10 -100
16 l-73 12 0 245 c0 228 1 244 18 240 9 -3 54 -11 100 -17z m2242 -223 l0
-243 -105 -15 -105 -15 0 242 0 243 33 6 c17 3 55 9 82 14 28 5 60 9 73 10
l22 1 0 -243z m-2045 198 c117 -11 105 18 105 -257 l0 -241 -72 7 c-40 4 -88
9 -105 13 l-33 5 0 245 c0 228 1 244 18 239 9 -2 49 -8 87 -11z m1825 -229 l0
-243 -88 -12 c-49 -6 -94 -11 -100 -11 -9 0 -12 63 -12 243 l0 244 88 10 c48
5 93 11 100 11 9 2 12 -53 12 -242z m-4123 -133 c-1 -65 -3 -12 -3 117 0 129
2 182 3 118 2 -65 2 -171 0 -235z m2623 332 c47 -3 113 -8 148 -11 l62 -6 0
-239 0 -239 -74 0 c-40 0 -88 3 -105 6 l-31 6 -2 237 -3 236 -2 -239 -3 -239
-62 7 c-33 3 -78 6 -99 6 l-39 0 0 246 0 246 63 -6 c34 -3 100 -8 147 -11z
m1290 -224 l0 -239 -27 -6 c-16 -2 -63 -8 -106 -11 l-77 -7 2 244 3 243 60 6
c33 3 79 6 103 7 l42 2 0 -239z m-220 -20 l0 -238 -46 -7 c-26 -3 -71 -6 -100
-6 l-54 0 0 239 0 240 38 4 c20 2 65 4 100 5 l62 2 0 -239z m-430 -16 l0 -245
-105 0 -105 0 -2 243 -3 242 -2 -243 -3 -243 -98 3 -97 3 -3 243 -2 242 210 0
210 0 0 -245z m220 6 l0 -238 -31 -7 c-17 -3 -65 -6 -105 -6 l-74 0 0 245 0
245 105 0 105 0 0 -239z m-3432 -68 c-3 -233 -3 -237 -20 -206 -16 28 -18 62
-18 264 l0 232 20 -26 c19 -24 20 -38 18 -264z m72 -85 l-1 -243 -29 35 -29
35 -1 240 0 240 30 -32 30 -32 0 -243z m5150 93 c0 -100 -4 -148 -15 -172 -13
-32 -14 -22 -15 139 0 146 2 172 15 172 13 0 15 -22 15 -139z m-5060 -162 c0
-132 -3 -239 -7 -239 -4 0 -20 12 -35 27 l-28 27 0 238 0 239 35 -27 35 -26 0
-239z m5020 113 l0 -179 -32 -44 -33 -44 -5 205 -6 205 -2 -212 -2 -211 -32
-28 -33 -27 -2 74 c-2 41 -4 143 -5 227 l-3 152 75 30 c41 16 76 29 78 30 1 0
2 -80 2 -178z m-4910 -191 l0 -243 -25 16 c-14 9 -36 23 -50 32 l-25 16 0 243
0 244 50 -32 50 -32 0 -244z m4740 66 c0 -230 0 -232 -22 -246 -13 -8 -33 -21
-46 -29 l-22 -15 2 243 3 243 35 18 c19 11 38 19 42 19 5 0 8 -105 8 -233z
m-104 -294 c-3 -7 -23 -21 -46 -33 l-40 -20 0 243 0 243 43 21 42 20 3 -231
c1 -127 0 -236 -2 -243z m-4518 167 c1 -132 0 -240 -4 -240 -3 0 -28 12 -55
27 l-49 26 0 244 0 243 53 -30 52 -30 3 -240z m4422 11 l0 -239 -37 -17 c-21
-10 -46 -22 -55 -27 -17 -8 -18 6 -18 235 l0 244 48 21 c26 12 50 21 55 22 4
0 7 -107 7 -239z m-4345 197 l45 -22 0 -242 0 -243 -52 23 -53 23 -3 242 c-1
154 1 241 8 241 5 0 30 -10 55 -22z m4225 -252 c0 -223 -1 -244 -17 -249 -10
-3 -35 -12 -55 -21 l-38 -16 0 243 0 243 48 21 c26 12 50 21 55 22 4 1 7 -109
7 -243z m-4109 204 l36 -13 7 -81 c8 -104 8 -406 0 -406 -4 0 -28 8 -55 17
l-49 18 0 243 c0 191 3 243 13 239 6 -2 28 -10 48 -17z m3987 -252 l-3 -243
-60 -22 c-33 -12 -63 -22 -67 -22 -5 -1 -8 108 -8 242 l0 243 63 21 c34 12 65
22 70 22 4 1 6 -108 5 -241z m-3820 -46 c1 -133 -1 -242 -6 -242 -5 0 -29 7
-55 16 l-47 16 0 243 0 244 53 -18 52 -18 3 -241z m222 -68 l0 -242 -47 13
c-27 7 -74 20 -105 29 l-58 17 0 244 0 243 105 -31 105 -31 0 -242z m3450 63
l0 -242 -82 -24 c-46 -13 -91 -26 -101 -29 -16 -4 -17 10 -15 238 l3 243 90
27 c50 16 93 29 98 29 4 1 7 -108 7 -242z m-210 -60 l0 -244 -94 -21 c-52 -12
-100 -22 -105 -22 -8 0 -11 77 -11 240 l0 240 28 6 c15 3 59 14 97 24 39 10
73 19 78 19 4 1 7 -108 7 -242z m-3118 211 l98 -22 0 -243 0 -243 -27 6 c-43
9 -99 23 -143 34 l-40 11 0 239 c0 132 3 240 7 240 4 0 52 -10 105 -22z m2898
-262 l0 -243 -82 -17 c-46 -9 -91 -16 -100 -16 -17 0 -18 18 -18 240 0 132 1
240 3 240 1 1 43 9 92 19 50 10 93 19 98 20 4 0 7 -109 7 -243z m-2679 218
l89 -17 0 -243 0 -244 -22 4 c-13 3 -50 10 -83 16 -33 6 -68 14 -77 16 -17 5
-18 25 -18 245 0 168 3 239 11 239 6 0 51 -7 100 -16z m277 -43 l32 -1 0 -245
c0 -189 -3 -245 -12 -245 -15 0 -130 18 -170 26 l-28 6 0 242 0 243 73 -13
c39 -7 87 -13 105 -13z m2191 -215 l3 -243 -83 -12 c-46 -7 -94 -15 -106 -18
l-23 -5 0 244 0 245 93 15 c50 8 97 16 102 17 6 0 11 -88 14 -243z m-222 -273
c-5 -4 -222 -30 -329 -39 l-88 -6 0 240 0 241 58 6 c31 3 76 8 100 11 l42 5 2
-243 3 -243 2 242 3 242 43 6 c23 3 69 9 102 13 l60 7 3 -239 c1 -131 1 -241
-1 -243z m-1662 453 c88 -8 208 -18 268 -22 l107 -6 0 -245 c0 -219 -2 -245
-16 -239 -9 3 -56 6 -105 6 l-89 0 -2 243 -3 242 -2 -237 -3 -238 -33 0 c-17
0 -62 3 -99 7 l-68 6 0 238 c0 153 -4 239 -10 239 -6 0 -10 -86 -10 -238 l0
-238 -77 8 c-43 5 -88 11 -100 13 l-23 5 0 242 0 241 53 -7 c28 -3 124 -13
212 -20z m1235 -255 c0 -209 -2 -240 -16 -245 -9 -3 -54 -6 -100 -6 l-84 0 0
240 0 239 63 4 c34 2 79 4 100 5 l37 2 0 -239z m-702 223 l52 -7 0 -238 0
-239 -100 0 -100 0 0 245 0 245 48 0 c26 0 71 -3 100 -6z m482 -239 l0 -245
-100 0 -100 0 0 240 0 239 73 4 c39 1 84 4 100 5 l27 2 0 -245z m-210 -5 l0
-240 -105 0 -105 0 0 240 0 240 105 0 105 0 0 -240z"/>
</g>
</svg>
