<?xml version="1.0" standalone="no"?>
<!DOCTYPE svg PUBLIC "-//W3C//DTD SVG 20010904//EN"
 "http://www.w3.org/TR/2001/REC-SVG-20010904/DTD/svg10.dtd">
<svg version="1.0" xmlns="http://www.w3.org/2000/svg"
 width="1024.000000pt" height="1024.000000pt" viewBox="0 0 1024.000000 1024.000000"
 preserveAspectRatio="xMidYMid meet">
<g transform="translate(0.000000,1024.000000) scale(0.100000,-0.100000)"
fill="#000000" stroke="none">
<path d="M6938 9561 c-76 -5 -103 -10 -125 -27 -27 -20 -160 -260 -150 -270 2
-3 15 -1 28 5 23 9 123 28 184 35 17 2 41 6 55 9 125 29 632 22 682 -9 15 -10
-8 30 -27 46 -9 8 -34 48 -55 89 -21 42 -48 87 -60 101 l-22 25 -206 1 c-114
1 -251 -2 -304 -5z"/>
<path d="M9100 9485 c-8 -15 -19 -23 -27 -20 -8 2 -11 0 -8 -5 3 -6 0 -19 -8
-31 -13 -18 -26 -21 -118 -22 -93 -2 -106 -4 -126 -24 -12 -12 -34 -25 -48
-29 -14 -3 -25 -13 -25 -20 0 -8 -10 -19 -22 -23 -13 -5 -35 -21 -50 -35 -15
-14 -32 -26 -37 -26 -5 0 -17 -10 -27 -22 l-16 -23 5 22 c3 15 1 20 -8 17 -7
-3 -16 4 -20 15 -6 21 -35 19 -35 -3 0 -7 -12 -18 -27 -25 -24 -11 -25 -10
-13 4 7 8 10 18 7 21 -3 4 0 13 8 21 12 11 12 17 2 28 -10 11 -15 11 -34 -1
-12 -8 -26 -14 -30 -14 -4 0 7 10 25 22 25 15 30 24 22 32 -8 8 -16 5 -29 -10
-16 -20 -19 -20 -37 -6 -19 14 -19 15 1 8 15 -5 17 -4 9 4 -13 13 -107 -28
-98 -42 4 -5 -1 -8 -8 -6 -8 2 -74 -24 -146 -57 -126 -57 -130 -60 -99 -68 67
-16 162 -58 242 -107 28 -16 58 -33 68 -36 9 -4 17 -9 17 -13 0 -4 17 -15 38
-26 20 -11 46 -28 57 -38 36 -33 85 -58 85 -43 0 7 10 21 22 32 14 12 19 14
13 4 -4 -8 7 2 26 22 19 20 61 49 94 64 33 15 74 39 92 53 79 64 91 71 110 64
10 -4 23 -14 30 -22 7 -9 12 -11 12 -6 0 18 -27 47 -38 41 -5 -4 -13 -2 -16 4
-4 6 -3 10 2 9 24 -4 34 2 28 20 -5 15 -1 18 20 13 14 -2 25 -9 25 -14 0 -6
-6 -8 -14 -5 -18 7 -13 -33 6 -44 7 -4 10 -11 6 -14 -6 -7 51 -75 64 -75 4 0
8 5 8 11 0 5 -4 7 -10 4 -5 -3 -10 -1 -10 4 0 23 19 9 46 -33 16 -24 33 -45
37 -45 4 -1 24 14 45 34 20 19 43 33 50 30 7 -3 11 -1 7 4 -3 5 -1 11 5 13 5
1 11 25 14 52 3 26 11 56 19 65 8 9 38 56 67 104 l52 88 -18 40 c-32 73 -85
89 -126 41 -13 -16 -29 -27 -36 -24 -7 2 -12 -5 -12 -17 0 -24 -6 -26 -43 -8
-33 15 -34 25 -4 38 l22 10 -23 -5 c-15 -3 -22 0 -19 7 2 7 13 11 23 9 18 -2
18 -2 0 9 -14 9 -20 8 -27 -2 -6 -10 -10 -8 -16 9 l-9 23 -14 -26z"/>
<path d="M7110 9167 c-3 -2 -39 -7 -80 -11 -138 -11 -219 -28 -395 -84 -149
-48 -381 -155 -452 -208 -17 -13 -36 -24 -41 -24 -9 0 -111 -66 -122 -79 -3
-3 -23 -19 -45 -36 -50 -38 -234 -219 -267 -265 -14 -19 -34 -44 -44 -55 -22
-24 -46 -63 -74 -122 -11 -23 -25 -45 -29 -48 -9 -5 -25 -37 -64 -125 -43 -99
-108 -330 -107 -380 1 -14 1 -79 1 -145 0 -133 2 -174 13 -225 4 -19 9 -44 11
-55 2 -11 4 -22 5 -25 1 -3 3 -9 4 -15 10 -53 21 -92 32 -114 8 -14 14 -32 14
-39 0 -25 112 -259 139 -290 23 -26 40 -53 54 -84 6 -16 17 -28 24 -28 7 0 13
-4 13 -9 0 -18 202 -234 227 -242 6 -2 33 -25 60 -50 49 -46 222 -152 320
-195 89 -39 74 -27 -32 29 -106 55 -243 146 -310 206 -73 67 -206 206 -235
246 -179 252 -273 531 -274 810 0 188 17 294 69 450 39 116 118 275 137 275 6
0 5 -6 -2 -15 -7 -9 -10 -18 -7 -21 3 -3 10 3 16 15 7 13 8 22 1 26 -6 4 -4
15 6 30 9 14 20 22 25 19 5 -3 6 1 4 9 -8 18 39 83 56 79 8 -2 11 0 7 3 -4 4
-3 16 3 27 18 34 81 98 90 92 5 -3 9 1 9 10 0 8 11 23 24 33 13 10 63 53 111
95 48 43 113 96 146 118 139 95 392 214 510 239 26 6 58 15 73 21 15 5 42 12
59 14 18 2 64 11 102 20 114 25 123 26 275 33 157 6 301 -6 464 -38 97 -19
239 -63 263 -82 7 -5 20 -7 28 -3 8 3 15 1 15 -4 0 -5 10 -14 23 -20 22 -11
22 -11 2 6 -18 15 -18 16 -2 10 10 -3 21 -6 23 -6 2 0 4 -6 4 -14 0 -8 7 -17
16 -20 26 -10 29 -7 8 10 -18 14 -18 15 6 8 28 -8 124 -54 188 -92 27 -15 39
-28 32 -32 -8 -5 -7 -9 5 -13 9 -4 13 -3 10 3 -11 18 11 11 51 -16 124 -84
292 -235 377 -339 89 -109 184 -283 236 -428 85 -241 99 -525 37 -742 -1 -5
-8 -36 -15 -67 -7 -32 -17 -58 -23 -58 -6 0 -7 8 -3 18 4 9 18 62 32 117 23
88 26 121 26 270 1 183 -18 329 -54 412 -10 24 -18 44 -17 46 11 19 -149 333
-182 357 -4 3 -11 13 -16 22 -18 33 -216 238 -225 232 -5 -3 24 -40 65 -82 77
-80 136 -154 136 -172 0 -6 7 -13 15 -16 8 -4 15 -12 15 -19 0 -7 4 -15 9 -17
19 -7 145 -280 154 -333 2 -11 9 -38 15 -60 6 -22 13 -61 16 -87 2 -26 7 -51
10 -56 15 -25 5 -337 -14 -397 -5 -16 -11 -47 -14 -67 -8 -50 -52 -179 -87
-255 -16 -34 -29 -66 -29 -71 0 -5 -7 -15 -15 -22 -8 -7 -12 -16 -9 -21 3 -5
0 -9 -6 -9 -7 0 -10 -5 -8 -12 3 -7 -7 -25 -20 -40 -25 -28 -43 -56 -61 -94
-5 -11 -43 -55 -84 -98 -44 -44 -74 -83 -71 -91 3 -7 -3 -16 -15 -20 -12 -3
-21 -12 -21 -20 0 -13 -27 -28 -39 -21 -3 3 -18 -5 -31 -16 -14 -11 -19 -16
-11 -12 9 4 12 2 9 -7 -3 -8 -11 -13 -17 -11 -6 1 -39 -16 -72 -38 -33 -22
-65 -40 -70 -40 -6 0 -8 -4 -5 -9 7 -11 -249 -132 -354 -166 -47 -16 -89 -32
-95 -37 -5 -4 -19 -8 -30 -8 -12 0 -55 -9 -96 -19 -254 -66 -601 -65 -874 2
-150 37 -217 57 -256 76 -24 12 -46 21 -50 21 -30 0 -300 147 -344 187 -11 10
-33 26 -49 37 -29 18 -154 133 -213 196 -87 92 -230 329 -259 430 -9 30 -20
62 -24 71 -19 38 -52 182 -59 259 -10 103 -5 272 10 354 21 121 88 323 110
337 6 3 9 15 7 25 -10 55 -118 -240 -150 -411 -78 -417 67 -866 389 -1200 152
-158 422 -325 673 -416 47 -17 72 -28 55 -25 -16 2 -39 8 -50 12 -18 7 -19 6
-6 -9 8 -10 16 -16 18 -13 4 4 138 -30 153 -39 6 -3 10 -2 10 3 0 5 -21 15
-46 21 -26 7 -44 14 -41 17 6 6 128 -26 141 -37 5 -4 -2 -6 -15 -3 -20 5 -21
4 -7 -5 20 -14 56 -16 83 -6 17 6 17 5 5 -5 -12 -9 -10 -11 12 -7 15 2 29 0
30 -5 5 -13 81 -17 97 -4 12 9 13 8 7 -2 -7 -11 4 -12 53 -8 36 3 61 1 61 -4
0 -12 33 -13 44 -3 4 4 55 9 114 10 59 1 129 7 157 12 27 5 53 7 57 5 4 -3 34
2 65 10 32 8 96 25 143 36 47 12 90 26 96 31 7 6 16 9 20 8 16 -4 68 13 132
42 35 16 68 26 74 23 7 -4 8 -2 4 4 -4 7 -2 12 4 12 22 0 309 173 330 199 3 3
32 28 65 56 140 115 307 309 370 428 11 21 21 33 23 28 7 -21 -104 -190 -192
-292 -17 -19 -5 -9 26 22 93 95 181 232 247 384 23 55 46 109 51 120 16 36 69
259 75 315 37 322 -52 665 -244 945 -88 128 -212 261 -316 341 -271 208 -557
329 -920 390 -89 14 -425 31 -435 21z"/>
<path d="M9491 9086 c-7 -9 -11 -25 -8 -36 3 -11 1 -20 -5 -20 -5 0 -6 -5 -3
-10 4 -6 11 -8 16 -5 5 3 6 -1 3 -9 -3 -9 -10 -16 -15 -16 -5 0 -37 -28 -72
-62 -36 -35 -94 -91 -131 -124 -36 -34 -66 -69 -66 -78 0 -9 -4 -16 -10 -16
-5 0 -10 -7 -10 -15 0 -8 -4 -15 -10 -15 -5 0 -10 -7 -10 -15 0 -22 -29 -89
-36 -82 -3 3 -1 14 5 25 8 15 8 22 -2 25 -7 3 -5 6 5 6 14 1 17 10 16 48 -1
56 -19 81 -40 56 -11 -14 -11 -16 1 -9 8 5 17 3 22 -5 13 -20 11 -29 -5 -23
-9 3 -17 -3 -21 -15 -3 -12 -10 -19 -15 -16 -10 6 4 71 22 92 7 10 8 14 1 10
-6 -4 -13 -1 -16 5 -3 10 -8 10 -23 -2 -18 -14 -18 -14 0 8 14 16 22 19 27 11
5 -9 12 -8 24 4 9 10 24 17 33 18 14 0 13 2 -3 8 -12 5 -23 4 -27 -3 -7 -10
-12 6 -9 27 0 4 -6 7 -15 7 -10 0 -12 5 -7 13 16 26 11 37 -18 33 -37 -4 -45
-12 -30 -29 9 -12 7 -14 -11 -13 -13 0 -22 -4 -21 -10 1 -6 -7 -9 -20 -7 -15
3 -30 -4 -46 -21 -23 -24 -31 -26 -110 -26 -56 1 -95 6 -111 15 -14 8 -35 14
-48 15 -20 0 -22 -2 -11 -22 7 -13 23 -31 36 -42 32 -24 115 -106 108 -106 -2
0 15 -21 40 -47 25 -25 43 -48 40 -51 -2 -2 1 -10 8 -18 7 -7 18 -21 26 -30
16 -18 98 -170 107 -196 4 -10 10 -18 15 -18 5 0 5 -7 2 -17 -4 -11 -3 -14 5
-9 8 5 12 -1 12 -18 0 -14 4 -27 9 -30 4 -3 6 5 4 18 -6 32 58 215 99 282 17
29 61 84 96 121 157 167 185 199 203 234 22 43 35 163 22 197 -8 21 -10 22
-22 8z"/>
<path d="M5675 9071 c-54 -25 -98 -61 -237 -196 -64 -63 -113 -117 -107 -120
5 -4 6 -12 2 -18 -4 -7 1 -6 10 2 16 13 17 12 8 -12 -8 -21 -7 -25 4 -20 8 3
15 9 15 13 0 4 11 10 25 12 14 3 25 4 25 2 0 -2 -22 -19 -50 -37 -27 -19 -47
-37 -43 -40 3 -4 1 -7 -6 -7 -8 0 -11 -6 -7 -15 3 -8 9 -22 12 -30 12 -30 -12
-14 -30 20 -10 19 -23 32 -29 28 -6 -3 -7 -1 -3 5 4 7 3 19 -2 28 -7 13 -14 6
-36 -37 -40 -81 -36 -106 48 -277 73 -149 74 -151 86 -122 7 16 17 27 23 23 6
-3 7 -1 3 6 -4 6 6 33 21 59 34 55 47 86 33 77 -15 -9 -12 11 3 24 8 6 17 8
21 4 4 -4 4 0 0 10 -5 13 -2 16 12 10 11 -4 15 -3 11 4 -4 6 0 13 8 17 8 3 15
10 15 16 0 6 -5 8 -12 4 -7 -4 -8 -3 -4 5 4 6 11 9 16 6 5 -3 22 14 39 37 64
92 321 338 352 338 10 0 16 5 14 13 -3 7 25 31 65 57 38 25 69 48 70 51 1 17
-238 79 -303 79 -18 0 -50 -9 -72 -19z"/>
<path d="M7160 8908 c-52 -5 -112 -9 -132 -10 -21 -2 -38 -5 -38 -8 0 -3 -10
-6 -22 -7 -33 -3 -91 -14 -108 -20 -8 -4 -19 -5 -24 -4 -4 1 -14 -3 -20 -9 -7
-5 -15 -8 -18 -5 -4 5 -178 -59 -245 -90 -17 -8 -36 -15 -42 -15 -6 0 -11 -4
-11 -9 0 -5 -9 -13 -20 -16 -25 -8 -149 -83 -168 -101 -7 -8 -18 -14 -23 -14
-20 0 -176 -130 -251 -208 -111 -116 -168 -205 -244 -379 -8 -17 -14 -33 -14
-36 0 -3 -5 -18 -11 -34 -7 -15 -13 -35 -14 -43 -1 -8 -10 -49 -18 -90 -26
-125 -29 -142 -29 -215 0 -146 16 -251 56 -355 54 -143 60 -159 77 -182 16
-21 16 -17 -2 36 -10 33 -19 69 -19 82 0 26 43 64 72 64 27 0 99 -51 183 -128
63 -58 189 -162 803 -659 l176 -143 61 -1 c149 -4 265 3 344 19 l34 8 -49 46
c-27 25 -62 57 -79 69 -16 13 -32 26 -35 29 -3 3 -25 21 -50 40 -25 19 -47 37
-50 40 -3 3 -23 19 -45 35 -22 17 -42 32 -45 35 -14 14 -119 99 -162 130 -109
80 -237 183 -296 239 -34 32 -86 75 -115 94 -28 19 -93 68 -143 108 -50 41
-158 128 -240 194 -82 65 -151 122 -154 125 -3 3 -53 43 -112 89 -60 46 -108
88 -108 92 0 5 -7 9 -15 9 -11 0 -13 8 -8 33 8 42 10 43 31 24 10 -10 24 -17
30 -17 7 0 12 -4 12 -10 0 -5 5 -10 12 -10 9 0 9 3 0 12 -7 7 -12 18 -12 26 0
8 -11 25 -24 37 -29 27 -25 72 8 85 31 11 124 37 181 49 82 17 206 48 265 66
30 9 91 25 135 37 44 12 82 24 85 28 3 3 22 7 43 9 21 1 50 9 65 17 15 8 35
14 45 14 10 0 20 7 23 15 4 9 16 13 35 11 17 -2 26 1 23 6 -4 6 2 7 15 3 11
-3 21 -2 21 3 0 5 15 8 33 7 36 -2 79 14 71 26 -3 5 5 9 18 9 18 0 20 -2 8
-10 -8 -5 -10 -10 -4 -10 6 0 23 9 38 21 15 12 26 16 26 9 0 -9 3 -10 14 -1 7
6 40 22 72 36 33 13 54 24 48 25 -6 0 -123 -31 -260 -69 -137 -38 -343 -95
-459 -126 -115 -31 -219 -58 -230 -62 -62 -18 253 211 370 270 28 13 111 45
185 70 122 41 165 54 265 75 43 10 552 6 604 -5 44 -8 43 -9 -120 -52 -90 -24
-168 -47 -173 -52 -5 -4 2 -5 15 -2 35 9 18 -5 -27 -21 -21 -8 -31 -15 -22
-15 24 -1 88 31 82 41 -3 4 2 8 10 8 9 0 15 -6 14 -12 -2 -8 6 -12 17 -11 35
2 89 12 123 22 17 5 32 7 32 3 0 -4 4 -2 8 5 7 12 44 20 124 28 20 2 46 8 57
15 12 6 37 12 55 14 18 2 38 6 45 10 6 4 42 18 79 30 50 17 79 22 108 17 37
-7 39 -8 36 -41 -1 -19 -7 -39 -12 -44 -6 -6 -10 -27 -10 -47 0 -21 -4 -41
-10 -44 -5 -3 -10 -20 -10 -36 0 -21 -4 -28 -12 -23 -8 5 -9 2 -5 -10 4 -10 2
-37 -4 -60 -6 -22 -13 -48 -14 -56 -34 -153 -72 -280 -85 -280 -11 0 -12 -2
-3 -8 9 -6 11 -30 8 -81 -4 -83 -11 -98 -20 -49 -5 28 -14 38 -46 52 -21 10
-39 22 -39 27 0 5 -5 9 -12 9 -7 0 -37 26 -66 58 -30 31 -51 51 -48 45 12 -22
1 -15 -49 32 -26 25 -50 43 -53 41 -2 -3 -22 13 -42 34 -21 22 -47 40 -57 40
-21 0 -55 34 -45 46 4 4 -1 4 -11 1 -11 -4 -16 -3 -12 3 4 6 0 17 -9 25 -17
18 -30 20 -20 4 4 -7 2 -10 -5 -8 -7 3 -12 8 -11 12 1 11 -53 65 -69 69 -7 2
-24 13 -38 26 -26 26 -50 26 -66 1 -24 -38 1 -65 200 -220 405 -317 462 -359
485 -359 39 0 64 45 97 177 18 71 38 148 46 173 7 25 23 84 36 133 13 48 27
87 30 87 4 0 5 9 2 20 -3 11 -1 20 3 20 5 0 10 -16 11 -35 2 -19 0 -35 -5 -35
-4 0 -8 -17 -10 -38 -5 -70 -7 -77 -21 -86 -11 -7 -11 -10 0 -16 10 -7 9 -13
-4 -33 -9 -14 -16 -33 -16 -43 0 -25 -6 -55 -14 -76 -15 -37 -16 -48 -7 -48 5
0 14 8 19 18 8 13 10 14 11 2 0 -13 1 -13 11 0 8 12 9 10 4 -8 -4 -12 -8 -35
-10 -50 -7 -55 -57 -237 -67 -243 -5 -3 -9 -8 -7 -10 7 -12 -14 -48 -34 -57
l-22 -11 25 0 c18 -1 21 -4 11 -10 -7 -5 -10 -14 -7 -20 4 -6 4 -17 0 -23 -5
-7 -8 -22 -8 -33 0 -11 3 -26 8 -33 5 -8 0 -12 -13 -12 -10 0 -22 6 -24 13 -4
7 -6 6 -6 -5 -1 -9 5 -19 12 -21 7 -3 5 -6 -5 -6 -11 -1 -18 -9 -18 -20 0 -10
-7 -24 -16 -32 -8 -7 -13 -20 -11 -30 8 -28 -15 -12 -48 33 l-29 42 -23 -74
c-13 -41 -25 -86 -28 -100 -3 -14 -12 -52 -20 -85 -15 -55 -37 -147 -87 -350
-11 -44 -22 -98 -24 -120 -8 -64 -10 -66 -39 -51 -14 8 -38 25 -53 38 -15 13
-42 35 -60 48 -17 13 -32 30 -32 37 0 7 -8 13 -19 13 -22 0 -44 23 -33 35 4 5
1 5 -6 1 -13 -8 -42 15 -42 35 0 7 -3 9 -7 6 -3 -4 -12 2 -20 13 -8 11 -20 20
-28 20 -7 0 -22 10 -32 23 -10 13 -26 26 -35 30 -10 3 -18 11 -18 17 0 6 -4 8
-10 5 -5 -3 -10 -2 -10 4 0 5 -9 12 -19 16 -11 3 -23 15 -26 26 -4 10 -10 17
-14 15 -4 -3 -23 9 -42 25 -19 17 -44 37 -56 46 -13 8 -20 20 -16 26 3 5 2 7
-4 4 -12 -7 -55 21 -49 32 3 4 0 13 -5 21 -8 12 -12 12 -16 3 -2 -7 -11 -13
-18 -13 -18 0 -28 -32 -18 -57 5 -11 55 -58 113 -104 58 -45 203 -163 322
-261 120 -98 223 -178 229 -178 6 0 9 -6 6 -13 -3 -7 3 -13 13 -13 10 0 17 3
14 7 -2 4 5 10 16 14 41 13 43 21 171 537 43 176 53 194 64 112 3 -27 2 -34
-5 -24 -5 8 -10 11 -10 5 -5 -65 -10 -98 -18 -108 -17 -20 -51 -178 -44 -201
15 -43 0 -85 -22 -67 -10 8 -12 -9 -12 -77 0 -95 -13 -142 -57 -195 -14 -17
-24 -33 -22 -35 6 -7 189 50 202 62 13 12 22 47 193 741 73 294 129 547 161
730 59 334 56 320 77 303 27 -22 189 -274 202 -315 7 -21 23 -60 35 -88 37
-85 44 -107 65 -200 29 -134 24 -301 -14 -425 -10 -30 -19 -68 -21 -83 -2 -15
-7 -33 -13 -40 -5 -7 -19 -46 -32 -87 -12 -41 -25 -80 -28 -85 -7 -11 17 15
42 46 26 32 108 186 127 239 46 126 70 210 85 290 17 99 22 207 9 234 -6 13
-5 17 2 13 11 -7 11 41 1 59 -3 5 -4 28 -3 52 2 23 -1 42 -7 42 -5 0 -7 9 -3
19 3 11 1 22 -5 26 -6 4 -9 13 -6 21 3 8 2 14 -2 14 -4 0 -9 10 -9 22 -1 13
-7 24 -13 26 -5 2 -8 7 -5 12 3 4 -2 21 -10 36 -8 16 -15 38 -15 50 0 11 -11
34 -25 50 -14 16 -25 34 -25 41 0 7 -8 16 -17 22 -10 5 -15 13 -11 17 4 4 -1
14 -11 23 -10 9 -23 26 -30 39 -30 56 -175 202 -281 282 -40 30 -77 60 -84 66
-6 5 -18 13 -26 17 -8 4 -24 13 -35 20 -81 50 -121 72 -134 74 -9 1 -21 9 -27
17 -6 9 -20 17 -30 19 -30 6 -54 19 -50 26 3 4 -7 6 -22 6 -15 -1 -46 9 -69
22 -23 12 -48 20 -56 17 -8 -3 -22 2 -31 11 -9 9 -20 13 -26 10 -5 -3 -10 -2
-10 2 0 5 -19 9 -41 8 -23 -1 -47 4 -53 9 -11 11 -17 12 -116 21 -108 10 -176
11 -270 3z"/>
<path d="M6956 8112 c-19 -31 -45 -122 -40 -137 5 -12 4 -16 -3 -12 -14 9 -23
-26 -12 -46 10 -17 -5 -67 -20 -67 -5 0 -12 -29 -16 -65 -3 -36 -13 -71 -20
-79 -8 -7 -11 -16 -8 -20 4 -3 0 -6 -8 -6 -11 0 -11 -2 1 -10 13 -9 13 -10 0
-10 -11 0 -15 -12 -15 -46 -1 -32 -6 -50 -18 -59 -19 -13 -24 -30 -6 -19 7 4
10 1 7 -7 -3 -8 -11 -13 -18 -11 -10 2 -11 0 -2 -10 12 -15 5 -61 -8 -53 -11
7 -20 -24 -15 -57 2 -17 -2 -29 -12 -32 -8 -3 -11 -10 -8 -16 4 -6 1 -27 -6
-48 -7 -20 -14 -44 -15 -52 -4 -26 -10 -44 -28 -83 -16 -36 -16 -41 -1 -63 14
-22 17 -23 31 -9 9 8 27 15 40 15 14 0 38 7 53 15 16 8 31 12 33 9 3 -2 25 5
49 16 40 18 33 20 -20 5 -16 -5 -10 28 53 277 57 228 75 283 89 286 10 2 50
-20 90 -49 39 -30 150 -111 245 -182 96 -70 185 -133 199 -138 31 -12 73 -2
52 12 -9 6 -4 7 14 3 26 -6 39 -2 97 26 8 4 25 6 38 5 13 -1 22 4 22 13 0 9 7
13 20 9 11 -3 18 -1 14 4 -3 5 -1 9 3 9 5 0 17 6 27 13 16 11 15 15 -11 43
-15 16 -77 69 -138 117 -60 48 -116 92 -124 99 -68 58 -155 116 -167 111 -9
-3 -12 0 -9 9 5 12 -36 58 -52 58 -5 0 -65 47 -113 88 -47 41 -154 120 -185
136 -31 17 -40 18 -57 7 -11 -7 -17 -8 -13 -2 3 6 4 11 1 11 -3 0 -7 -4 -10
-8z"/>
<path d="M9160 8079 c0 -6 4 -18 10 -28 5 -10 12 -33 15 -51 3 -18 10 -40 14
-49 8 -15 23 -98 26 -151 1 -14 3 -27 5 -30 14 -25 20 -198 10 -315 -9 -108
-46 -276 -77 -345 -33 -75 -51 -116 -64 -150 -7 -19 -31 -71 -54 -115 -47 -92
-57 -118 -59 -160 -1 -16 -5 -36 -10 -43 -7 -12 -4 -12 14 -2 12 7 25 21 27
31 3 10 10 19 15 19 5 0 7 4 3 9 -3 5 -1 12 5 16 5 3 26 -19 45 -50 20 -30 37
-55 39 -55 2 0 24 58 50 129 47 127 75 173 117 186 11 4 17 11 14 16 -3 5 0 6
7 4 17 -7 180 72 261 126 34 23 77 58 96 77 32 33 33 36 15 43 -15 6 -16 8 -3
8 25 1 39 24 24 38 -10 9 -14 7 -18 -9 -6 -21 -6 -21 -25 2 -19 23 -20 23 -46
7 -22 -15 -26 -15 -26 -2 0 8 -4 15 -10 15 -5 0 -10 -5 -10 -11 0 -6 -7 -9
-15 -6 -8 4 -17 2 -20 -3 -3 -5 -19 -7 -35 -3 -17 3 -67 -1 -112 -8 -46 -8
-92 -13 -103 -13 -45 3 -50 5 -27 14 12 5 22 14 22 19 0 5 9 7 19 4 16 -4 19
-1 15 19 -5 21 -4 22 9 6 17 -21 25 -23 24 -5 -1 45 4 55 29 55 15 0 29 4 33
10 3 6 15 10 25 9 14 -1 22 7 28 30 10 37 25 50 41 34 14 -14 30 -15 22 -1 -8
13 38 8 47 -5 4 -6 8 -2 8 8 0 22 24 22 46 0 13 -13 19 -14 22 -5 2 6 8 12 13
12 4 0 6 -8 3 -17 -5 -15 -4 -16 5 -3 8 11 7 18 -2 25 -6 6 -12 15 -13 20 0 6
-6 23 -12 39 -7 16 -10 31 -8 34 3 3 10 -7 15 -21 7 -18 15 -25 26 -21 8 3 15
1 15 -6 0 -6 -4 -8 -10 -5 -5 3 -10 3 -10 -2 1 -14 27 -43 38 -43 6 0 13 -12
16 -27 2 -16 3 24 1 87 -3 82 -13 155 -34 252 -36 158 -40 170 -52 162 -5 -3
-9 1 -9 10 0 8 -15 23 -32 34 -29 18 -413 162 -431 162 -4 0 -7 -5 -7 -11z"/>
<path d="M6760 8055 c0 -9 -15 -71 -34 -138 -18 -67 -48 -176 -66 -242 -18
-66 -43 -158 -56 -204 -13 -46 -24 -94 -24 -107 0 -12 -5 -26 -10 -29 -13 -8
-92 31 -103 51 -4 8 -14 14 -21 14 -7 0 -22 11 -34 25 -12 14 -27 25 -33 25
-5 0 -7 5 -3 12 4 6 3 8 -4 4 -10 -6 -29 9 -113 86 -16 14 -29 24 -29 20 0 -3
-8 3 -18 14 -37 38 -88 79 -115 94 -16 8 -39 23 -51 35 -124 113 -157 129
-171 84 -9 -28 10 -55 73 -101 58 -43 313 -247 322 -258 3 -3 20 -16 38 -29
18 -12 29 -27 26 -33 -5 -7 -2 -8 5 -4 7 5 21 -1 34 -14 44 -43 133 -112 155
-121 12 -5 22 -13 22 -19 0 -5 5 -10 11 -10 5 0 8 4 5 9 -3 5 6 17 19 27 28
21 44 68 100 284 82 316 96 366 104 385 14 31 23 94 16 115 -9 27 -45 47 -45
25z"/>
<path d="M5235 7959 c-16 -34 -29 -45 -74 -66 -31 -13 -78 -35 -106 -47 -27
-13 -84 -37 -125 -54 -41 -17 -67 -32 -57 -32 23 0 21 -9 -9 -45 -17 -20 -22
-23 -15 -8 12 23 5 56 -10 47 -5 -3 -6 -10 -3 -16 5 -7 1 -9 -9 -5 -19 7 -23
-9 -4 -16 8 -4 8 -8 2 -14 -5 -4 -21 -21 -35 -37 l-25 -29 36 21 c24 15 36 18
36 9 0 -13 -22 -38 -32 -37 -3 0 -8 0 -11 0 -4 0 0 -8 7 -17 10 -11 10 -14 2
-9 -9 5 -13 -2 -13 -23 0 -17 -4 -31 -9 -31 -5 0 -12 -8 -14 -17 -3 -10 -6 7
-6 37 0 30 -1 66 -1 80 l-1 25 -15 -28 c-9 -16 -13 -31 -10 -35 3 -3 -2 -14
-11 -25 -10 -11 -12 -17 -5 -13 6 4 12 2 12 -4 0 -6 -7 -13 -15 -16 -13 -5
-15 -33 -14 -173 0 -91 4 -217 8 -278 12 -168 31 -189 247 -283 237 -103 294
-145 358 -266 25 -47 58 -102 74 -122 16 -21 38 -53 49 -73 l21 -37 -61 -50
c-44 -37 -65 -49 -76 -42 -9 4 -41 11 -72 15 -74 9 -97 -3 -226 -123 -136
-126 -162 -182 -133 -282 9 -30 7 -37 -13 -57 -21 -21 -25 -22 -95 -11 -67 11
-76 10 -117 -10 -25 -12 -90 -62 -144 -112 -118 -107 -147 -155 -136 -228 4
-26 12 -53 18 -60 11 -14 -53 -81 -293 -307 -58 -54 -146 -137 -195 -184 -50
-47 -149 -140 -220 -206 -71 -66 -141 -131 -155 -145 -15 -14 -100 -95 -191
-180 -193 -182 -270 -254 -321 -300 -21 -18 -35 -37 -31 -43 4 -6 1 -7 -7 -2
-10 6 -12 4 -7 -9 4 -10 7 -23 8 -29 0 -7 4 -3 9 8 8 18 9 18 9 2 1 -10 6 -15
11 -12 6 3 10 1 10 -5 0 -6 4 -9 10 -5 5 3 24 -9 41 -27 18 -18 29 -25 26 -15
-10 27 1 20 17 -12 8 -15 29 -34 46 -41 17 -7 29 -15 27 -17 -3 -2 13 -22 35
-45 21 -22 51 -57 66 -76 15 -20 38 -48 52 -62 46 -49 75 -86 94 -120 11 -19
28 -41 38 -48 10 -7 18 -20 18 -28 0 -8 7 -17 15 -20 8 -4 15 -12 15 -19 0 -7
6 -16 13 -18 9 -4 9 -6 0 -6 -6 -1 -14 3 -17 8 -14 22 -81 -15 -97 -54 -6 -15
-8 -16 -8 -4 -1 22 -30 33 -47 18 -15 -12 -34 -4 -33 14 0 9 2 8 6 -1 2 -6 9
-9 14 -6 12 7 -29 40 -56 46 -11 2 -19 10 -18 16 2 7 -3 11 -10 9 -7 -1 -11 6
-9 17 2 12 -1 15 -8 11 -7 -4 -35 15 -68 47 -32 30 -75 67 -97 83 -22 16 -46
35 -53 42 -7 7 -16 13 -20 13 -4 0 -47 39 -97 85 -49 47 -93 85 -97 85 -4 0
-4 7 -1 17 4 10 2 14 -4 10 -14 -9 -25 45 -12 58 7 7 8 4 4 -7 -4 -10 -3 -18
3 -18 22 0 42 13 42 26 0 8 7 14 16 14 9 0 14 6 11 13 -2 6 -9 11 -15 10 -8
-2 -8 4 0 22 6 13 16 22 22 18 8 -4 8 -3 0 6 -12 13 -44 5 -44 -11 0 -5 -4 -7
-8 -4 -12 7 -52 -40 -44 -50 4 -4 1 -4 -6 0 -30 17 -89 -89 -80 -144 2 -10
-10 -32 -26 -49 -17 -17 -26 -31 -21 -31 5 0 -6 -11 -24 -24 -18 -14 -108 -98
-200 -188 -174 -170 -248 -240 -496 -473 -276 -259 -319 -300 -410 -385 -49
-48 -124 -117 -165 -155 -41 -39 -101 -98 -135 -131 -33 -34 -96 -95 -140
-135 -149 -137 -350 -324 -430 -400 -178 -169 -201 -190 -225 -195 -14 -4 -47
-16 -73 -27 -63 -26 -96 -87 -104 -191 -7 -89 12 -166 71 -289 60 -126 118
-192 229 -260 134 -82 296 -101 402 -47 45 23 54 33 87 101 40 84 54 99 241
271 150 140 155 141 243 83 61 -40 126 -101 511 -484 323 -321 313 -313 421
-292 103 20 335 80 343 88 5 5 4 14 0 22 -8 12 -14 12 -40 1 -18 -7 -38 -9
-48 -4 -10 4 -27 8 -38 8 -11 1 -19 7 -17 14 1 6 -2 12 -6 12 -5 0 -17 7 -28
16 -13 11 -14 14 -3 11 9 -3 16 1 16 8 0 7 -7 11 -15 8 -8 -3 -18 0 -22 8 -14
22 -23 3 -10 -21 6 -12 9 -25 5 -28 -8 -8 -25 19 -19 29 2 4 0 10 -6 14 -6 4
-8 11 -5 16 4 5 -3 9 -14 9 -11 0 -25 8 -31 17 -11 17 -11 17 -6 1 6 -19 -9
-34 -19 -18 -3 5 -19 -3 -35 -20 -16 -17 -36 -30 -45 -30 -8 0 -15 -6 -15 -14
0 -18 -33 -30 -59 -21 -13 4 -17 12 -14 26 5 16 8 18 14 7 6 -9 9 -9 9 -1 0
20 -20 26 -37 11 -12 -9 -15 -9 -9 0 4 7 2 12 -7 12 -8 0 -18 7 -21 16 -6 15
-4 15 16 2 20 -13 25 -13 36 -2 9 10 10 20 3 32 -14 26 30 27 58 1 l22 -20 -6
31 c-5 28 -3 31 15 25 20 -6 21 -4 23 38 1 16 -4 21 -16 19 -10 -2 -17 1 -16
5 4 23 -3 34 -18 32 -32 -4 -51 11 -45 34 3 12 1 19 -3 14 -5 -4 -15 7 -22 24
-13 32 -13 32 -35 13 -15 -13 -18 -14 -10 -3 21 28 2 55 -35 50 -8 -1 -10 5
-6 15 5 13 2 15 -13 11 -31 -10 -95 58 -79 83 3 5 -8 16 -24 25 -38 19 -47 19
-31 0 11 -13 10 -14 -4 -9 -10 4 -14 13 -11 24 5 15 0 17 -26 14 -23 -3 -30 0
-26 9 3 8 -8 26 -24 41 -16 15 -29 32 -29 37 0 6 -5 7 -12 3 -8 -5 -9 -2 -4
11 5 14 0 24 -16 37 -20 16 -21 18 -3 12 17 -5 16 -2 -6 18 -14 13 -32 38 -40
56 -15 34 -32 38 -36 6 -3 -19 -3 -19 5 0 8 18 9 18 15 2 11 -27 -21 -31 -43
-5 -10 13 -19 30 -20 37 0 6 -6 12 -14 12 -8 0 -17 8 -20 18 -11 32 -75 94
-100 96 -13 0 -22 6 -19 12 2 5 -8 16 -21 24 -14 7 -23 17 -20 21 7 12 -23 66
-42 77 -11 6 -15 17 -12 30 5 17 3 19 -11 10 -9 -5 -32 -30 -50 -53 -19 -24
-39 -42 -43 -39 -4 3 -8 1 -8 -3 0 -13 -140 -158 -151 -155 -5 1 -9 -7 -9 -19
0 -11 -4 -18 -10 -14 -5 3 -29 -14 -53 -38 -24 -23 -49 -41 -56 -39 -6 2 -11
-4 -11 -13 0 -12 -5 -15 -16 -11 -11 4 -15 2 -11 -7 3 -7 -3 -19 -14 -25 -11
-7 -16 -19 -13 -29 5 -14 4 -15 -4 -4 -8 11 -16 9 -45 -13 -22 -17 -41 -24
-53 -20 -12 4 -15 3 -7 -3 15 -11 4 -28 -25 -37 -12 -4 -20 -13 -16 -19 3 -7
-1 -4 -9 5 -8 10 -22 18 -30 18 -22 0 -127 106 -127 128 0 5 -7 12 -15 16 -8
3 -15 12 -15 20 0 8 -5 18 -12 22 -7 5 -8 3 -3 -7 13 -20 -10 -1 -75 64 -66
66 -74 85 -54 134 15 34 15 36 0 24 -9 -7 -16 -9 -16 -4 0 14 35 44 43 37 7
-7 20 37 16 52 -4 11 119 134 133 134 5 0 6 5 2 12 -4 7 -3 8 5 4 12 -8 46 21
46 40 0 17 57 69 73 66 7 -2 11 3 10 10 -2 7 5 12 15 11 11 0 16 4 13 12 -2 7
6 17 20 24 13 6 24 15 24 21 0 5 9 10 21 10 16 0 19 5 15 23 -3 12 -3 16 0 10
3 -7 10 -13 15 -13 6 0 7 5 4 10 -3 6 -1 10 6 10 7 0 9 8 6 21 -4 14 -2 19 8
15 7 -2 15 4 18 15 3 10 13 22 23 26 10 4 25 13 34 20 8 7 24 19 35 28 16 11
17 17 7 23 -10 7 -7 13 13 26 15 10 33 15 40 12 8 -3 17 3 20 15 4 10 12 19
20 19 14 0 28 27 20 40 -3 4 12 15 33 23 20 9 32 16 25 16 -15 1 -5 31 11 31
20 1 58 39 50 51 -5 9 -2 10 9 6 10 -3 17 -3 17 2 0 5 9 11 21 14 12 3 18 10
15 15 -3 6 5 13 18 16 14 3 27 15 31 26 4 13 12 17 23 13 9 -3 14 -3 10 2 -4
4 3 16 15 26 13 11 17 18 9 19 -7 0 -11 4 -7 10 3 5 12 7 20 3 11 -4 13 -1 9
11 -3 9 -1 16 5 16 5 0 19 9 30 21 11 13 24 18 32 14 8 -5 10 -4 5 3 -4 6 8
26 27 44 19 18 40 42 46 53 l13 20 -6 -20 c-5 -16 -1 -15 18 7 14 16 30 28 36
28 5 0 10 4 10 10 0 5 14 16 30 25 17 9 30 22 30 29 0 8 12 22 28 31 38 25 83
73 80 86 -2 6 4 14 12 16 13 4 13 3 0 -6 -8 -6 -10 -11 -4 -11 6 0 26 14 44
30 18 17 37 30 42 30 4 0 8 5 8 11 0 6 11 20 25 31 14 11 25 26 25 33 0 8 13
21 29 30 17 8 37 25 45 37 9 12 16 19 16 15 0 -4 6 -2 14 5 11 10 11 16 3 27
-10 11 -8 13 12 6 16 -5 21 -4 17 4 -4 6 0 11 9 11 9 0 13 5 10 11 -4 5 7 15
24 22 17 6 31 17 31 24 0 7 11 20 25 29 14 9 22 20 19 25 -3 5 -1 9 5 9 6 0
22 11 36 25 14 14 25 23 25 21 0 -3 12 4 26 17 14 12 30 23 35 23 5 1 14 2 19
3 6 0 10 8 10 16 0 9 8 19 18 22 31 12 42 29 29 44 -9 9 -7 9 7 -1 16 -13 20
-12 32 5 8 11 10 21 5 25 -6 3 -6 11 -1 20 8 13 10 12 10 -2 0 -22 23 -24 39
-4 7 8 23 13 37 11 14 -1 28 3 31 11 2 7 13 11 24 9 10 -2 22 2 26 8 10 16 63
57 74 57 4 0 33 -23 63 -51 58 -53 66 -78 34 -116 -7 -8 -12 -25 -13 -37 0
-11 -6 -21 -12 -21 -7 0 -13 -3 -13 -7 0 -5 0 -11 0 -15 0 -4 5 -2 12 5 15 15
32 16 23 2 -7 -12 12 -40 27 -40 5 0 6 6 2 13 -6 8 -3 8 9 -2 13 -10 14 -17 6
-33 -13 -25 -6 -33 13 -15 8 8 24 18 36 21 12 4 22 11 22 16 0 15 53 22 61 8
13 -19 11 -28 -6 -28 -8 0 -15 -6 -15 -13 0 -7 -12 -24 -27 -37 -33 -29 -18
-36 33 -15 l37 15 -27 -25 c-15 -14 -31 -25 -37 -25 -5 0 -8 -6 -6 -12 1 -7
-6 -12 -15 -10 -12 2 -16 -2 -12 -13 4 -10 -10 -31 -42 -60 -26 -25 -44 -45
-40 -45 8 0 -8 -20 -43 -55 -18 -18 -24 -35 -26 -74 -2 -59 -7 -68 -27 -47
-14 13 -19 11 -49 -20 -18 -19 -27 -34 -21 -34 7 0 15 7 18 15 4 8 10 12 15 9
5 -3 12 2 15 10 3 9 10 13 16 10 5 -3 5 -11 -2 -19 -8 -10 -7 -14 2 -17 7 -3
-11 -15 -40 -28 -51 -23 -70 -44 -33 -38 10 2 28 -6 40 -16 12 -11 21 -15 21
-9 0 6 12 8 26 5 l26 -5 -29 -24 c-22 -19 -23 -22 -5 -13 18 9 23 8 29 -6 3
-9 0 -20 -7 -24 -8 -5 -9 -9 -1 -14 6 -4 11 -2 11 5 0 9 3 9 14 0 11 -9 15 -9
19 1 3 7 6 3 6 -9 1 -13 7 -23 16 -23 8 0 15 -6 15 -14 0 -9 7 -13 20 -11 11
2 20 -2 20 -8 0 -7 9 -19 19 -27 11 -7 17 -18 14 -24 -4 -5 0 -7 8 -4 8 3 23
9 34 13 18 7 18 6 -2 -9 -14 -10 -19 -23 -16 -36 3 -11 9 -17 14 -14 5 3 9 1
9 -4 0 -5 10 -22 21 -36 17 -21 24 -25 30 -14 7 10 9 10 9 -2 0 -12 2 -12 9
-2 6 10 10 3 15 -22 4 -20 11 -34 17 -31 5 4 9 2 9 -3 0 -6 7 -12 14 -15 11
-4 13 -1 10 11 -5 15 -4 15 6 0 6 -10 10 -26 8 -35 -2 -13 3 -18 20 -17 12 0
22 -1 22 -3 0 -2 -10 -8 -22 -13 -20 -9 -18 -9 9 -4 19 3 34 1 39 -7 4 -7 3
-10 -4 -5 -6 3 -13 2 -17 -4 -3 -5 -2 -10 4 -10 10 0 27 -38 23 -52 -1 -4 4
-5 12 -2 8 3 16 -4 19 -17 4 -16 11 -20 26 -16 12 3 24 1 27 -4 3 -6 14 -7 25
-4 15 5 17 3 12 -11 -5 -13 -3 -15 7 -9 10 6 12 4 7 -9 -4 -9 -3 -15 2 -12 5
3 14 -1 21 -9 11 -13 8 -15 -19 -15 -17 0 -31 -4 -31 -9 0 -5 9 -7 20 -4 11 3
20 1 20 -5 0 -5 11 -9 25 -9 14 0 25 3 25 8 0 5 4 9 10 9 5 0 7 -8 3 -18 -3
-9 -3 -14 2 -10 4 4 15 2 23 -5 13 -10 14 -9 8 1 -7 12 -4 12 15 1 23 -12 23
-12 4 -20 -11 -4 -14 -8 -6 -8 8 -1 11 -7 7 -16 -3 -10 -1 -15 7 -14 25 4 48
-13 42 -32 -4 -11 -2 -19 4 -19 6 0 8 -7 5 -15 -4 -9 0 -15 10 -15 9 0 16 -5
16 -11 0 -5 5 -7 10 -4 6 3 10 -3 10 -15 0 -18 3 -19 20 -10 14 7 20 7 20 0 0
-5 7 -10 15 -10 8 0 15 -4 15 -10 0 -5 7 -7 15 -4 8 4 15 2 15 -4 0 -6 9 -8
20 -5 21 6 28 -11 8 -23 -6 -4 -8 -3 -5 3 4 6 -4 10 -21 10 -15 0 -21 -2 -14
-4 6 -3 10 -9 7 -14 -4 -5 1 -6 9 -3 11 4 16 0 17 -12 0 -11 3 -14 6 -6 7 18
23 4 17 -16 -4 -10 -2 -13 3 -7 13 16 27 13 50 -11 l22 -23 -30 3 c-36 4 -37
-1 -3 -14 14 -6 22 -15 19 -20 -4 -6 -11 -8 -16 -5 -5 4 -9 2 -9 -4 0 -5 9
-13 20 -16 11 -3 20 -13 20 -22 0 -10 6 -13 16 -9 9 4 13 2 8 -5 -4 -6 0 -15
7 -20 20 -12 31 -11 23 2 -4 7 -1 10 7 7 8 -3 13 -12 11 -20 -1 -8 7 -23 18
-33 23 -21 27 -14 5 8 -12 13 -12 17 4 31 17 16 18 15 18 -22 0 -21 6 -55 14
-75 11 -32 11 -39 -4 -55 -9 -10 -14 -22 -10 -25 3 -4 1 -7 -5 -7 -7 0 -11 -3
-11 -7 4 -18 -23 -70 -42 -83 -11 -8 -34 -27 -50 -42 -16 -16 -39 -28 -52 -28
-13 0 -31 -8 -40 -18 -20 -21 -87 -29 -88 -10 0 7 -4 3 -9 -9 -8 -20 -12 -22
-35 -11 -15 7 -24 17 -21 25 4 8 -3 13 -19 13 -26 0 -41 15 -26 25 14 8 2 35
-14 35 -8 0 -15 10 -17 23 -2 13 -10 22 -21 22 -9 0 -28 18 -42 40 -13 22 -25
36 -25 32 0 -5 -7 -1 -16 7 -8 9 -25 16 -36 16 -13 0 -18 5 -15 14 3 8 -1 20
-9 26 -8 7 -14 9 -14 4 -1 -5 -10 2 -20 15 -11 13 -20 20 -20 17 0 -7 -19 9
-85 72 -20 18 -40 30 -45 27 -5 -3 -14 4 -20 15 -6 12 -16 18 -23 14 -9 -5 -9
-4 -1 5 9 10 17 10 32 2 16 -8 21 -7 26 6 7 18 -12 35 -31 28 -7 -2 -13 1 -13
9 0 14 -69 72 -82 69 -4 -2 -8 4 -8 12 0 9 -13 18 -31 22 -18 3 -26 9 -19 13
8 5 2 10 -14 14 -16 4 -31 17 -37 33 -5 14 -12 23 -15 20 -4 -3 -13 1 -21 9
-9 8 -22 13 -29 10 -8 -3 -14 -1 -14 4 0 18 -33 48 -47 43 -8 -3 -13 -1 -11 3
2 5 -7 20 -19 34 -13 13 -23 28 -23 33 0 4 -6 15 -14 23 -13 12 -15 12 -19 -4
-4 -13 -5 -11 -6 6 -1 20 -10 26 -27 20 -4 -2 -11 8 -15 21 -6 15 -14 21 -25
17 -8 -3 -12 -2 -9 4 3 6 1 10 -4 10 -6 0 -11 5 -11 11 0 13 -21 33 -40 37 -8
2 -18 8 -21 14 -3 5 -10 10 -15 11 -5 1 -8 5 -7 10 2 4 -2 7 -7 7 -6 0 -10 7
-10 17 0 9 -3 14 -6 11 -3 -3 -44 32 -91 79 -82 80 -86 87 -76 111 24 61 23
65 -9 28 -18 -22 -53 -58 -77 -80 -24 -23 -57 -53 -73 -68 -15 -14 -28 -23
-28 -20 -1 4 -7 -5 -15 -20 -8 -15 -24 -29 -35 -33 -11 -3 -20 -13 -20 -21 0
-8 -4 -12 -10 -9 -5 3 -10 -2 -10 -12 0 -10 -9 -25 -20 -33 -11 -8 -20 -20
-20 -27 0 -7 -7 -13 -15 -13 -9 0 -18 -8 -22 -17 -10 -27 -42 -55 -55 -47 -6
4 -8 3 -5 -3 8 -13 -17 -35 -65 -58 -24 -11 -35 -22 -31 -31 4 -10 -1 -13 -17
-12 -13 2 -25 -3 -27 -10 -3 -8 2 -10 14 -6 10 3 2 -5 -18 -18 -51 -31 -67
-58 -44 -74 15 -11 14 -14 -13 -28 -37 -19 -50 -36 -22 -29 16 4 20 0 20 -21
0 -24 10 -31 34 -27 5 1 6 -5 2 -14 -4 -12 -1 -15 16 -13 15 2 23 -2 24 -12 2
-33 4 -38 17 -37 46 1 66 -4 61 -17 -3 -7 2 -20 10 -29 9 -9 16 -20 16 -26 0
-6 18 -15 40 -21 38 -10 46 -21 41 -58 -2 -10 5 -12 21 -8 13 3 17 3 11 0 -20
-9 -15 -24 6 -24 10 0 31 -15 46 -34 16 -20 33 -32 41 -29 17 6 19 -13 2 -21
-7 -3 -3 -3 9 0 18 4 22 2 17 -11 -5 -13 -2 -14 21 -5 26 10 27 9 14 -7 -8
-10 -18 -21 -24 -25 -5 -4 -8 -8 -5 -9 3 0 14 -3 25 -5 11 -3 26 -6 33 -6 6
-1 12 -5 12 -10 0 -5 11 -19 25 -32 13 -13 21 -27 17 -31 -4 -4 3 -5 15 -2 13
3 23 1 23 -4 0 -5 -5 -9 -10 -9 -6 0 -5 -8 2 -19 7 -11 15 -18 19 -15 4 2 11
-1 14 -6 4 -6 19 -16 33 -22 16 -6 22 -12 14 -15 -10 -4 -10 -8 -1 -19 10 -12
14 -12 20 -2 7 10 9 9 9 -4 0 -10 6 -18 14 -18 8 0 17 -8 21 -18 3 -11 16 -24
29 -30 14 -6 32 -26 41 -45 13 -27 21 -34 37 -29 18 4 19 3 7 -16 -11 -18 -11
-24 0 -34 12 -11 13 -10 8 5 -9 23 15 22 37 -2 11 -12 14 -21 7 -26 -6 -3 -11
-1 -11 5 0 6 -5 8 -11 4 -8 -5 -7 -9 1 -14 7 -4 10 -15 7 -25 -6 -13 -3 -15
16 -9 12 3 27 10 32 14 24 17 45 19 45 4 0 -9 -6 -14 -13 -11 -15 6 -20 -24
-6 -34 13 -8 28 -99 17 -99 -6 0 -8 -6 -5 -14 3 -8 -1 -17 -8 -20 -12 -4 -9
-14 10 -48 26 -46 32 -107 15 -153 -6 -15 -6 -33 -2 -42 8 -13 12 -12 30 7 32
34 40 70 51 225 10 148 5 210 -22 262 -16 31 -155 170 -302 303 -122 111 -368
342 -427 403 -87 87 -80 114 59 246 83 78 113 95 146 85 30 -9 141 -112 571
-529 137 -132 285 -275 330 -319 144 -139 213 -194 252 -202 72 -13 390 110
456 178 27 28 206 380 228 450 20 66 6 100 -84 190 -45 46 -131 128 -191 183
-60 55 -134 125 -165 155 -30 30 -91 87 -135 125 -44 39 -92 82 -106 95 -195
186 -250 237 -344 315 -139 117 -139 123 -1 242 69 60 107 76 160 68 63 -10
108 8 167 67 60 61 73 84 89 161 18 89 87 164 560 611 226 212 413 391 490
466 48 47 97 93 108 102 12 9 62 53 112 98 94 85 125 101 175 89 97 -22 139
-2 284 140 109 106 131 148 128 250 -2 55 2 74 15 87 17 17 20 16 67 -5 69
-33 102 -24 187 48 67 57 181 178 216 230 12 17 18 45 18 79 0 65 17 106 62
155 43 46 77 48 151 11 103 -53 301 -113 524 -160 45 -9 78 -54 157 -214 105
-212 95 -205 306 -204 246 2 446 21 500 47 64 33 104 95 135 208 45 170 56
183 185 215 36 8 124 44 195 79 72 34 144 66 160 69 18 4 104 -6 207 -24 97
-16 193 -30 215 -29 38 1 123 27 91 28 -12 1 -15 6 -11 18 5 12 2 15 -8 11
-14 -5 -15 0 -22 90 -1 17 -6 31 -11 29 -5 -2 -20 7 -33 19 -27 25 -183 108
-183 97 0 -4 -6 1 -13 12 -8 10 -19 15 -25 11 -7 -4 -12 -4 -12 1 0 8 -36 26
-77 38 -13 3 -23 10 -23 15 0 4 -15 13 -32 19 l-33 12 53 30 c28 16 52 31 52
32 0 5 -44 1 -60 -6 -8 -3 -32 -11 -53 -17 -21 -6 -50 -22 -65 -34 -15 -12
-34 -22 -42 -21 -8 0 -17 -2 -20 -5 -7 -7 -110 -70 -115 -70 -3 0 -2 7 1 15 5
12 2 14 -17 7 -13 -5 -30 -7 -37 -5 -7 3 -12 1 -11 -4 3 -19 -2 -27 -10 -14
-7 11 -17 9 -55 -8 -26 -11 -62 -23 -82 -27 -19 -3 -37 -11 -40 -16 -4 -7 -9
-6 -13 1 -5 7 -15 6 -34 -4 -15 -7 -55 -17 -89 -20 -34 -4 -65 -8 -68 -10 -6
-4 -113 -16 -160 -19 -14 0 -28 -5 -32 -11 -5 -6 -8 -6 -8 1 0 10 -50 8 -80
-3 -27 -11 -64 -12 -76 -3 -7 6 -29 7 -57 1 -26 -4 -48 -6 -51 -4 -2 2 -45 6
-95 8 -64 3 -98 9 -118 22 -20 13 -25 14 -16 3 10 -13 6 -15 -27 -15 -21 0
-42 4 -47 8 -4 5 1 5 12 1 11 -4 17 -4 13 1 -4 4 -27 12 -50 16 -24 4 -60 12
-80 17 -23 6 -38 6 -38 1 0 -5 -11 -3 -24 6 -13 8 -31 13 -40 9 -9 -3 -16 -1
-16 5 0 6 -9 11 -20 11 -27 0 -112 29 -130 45 -10 9 -29 12 -58 8 -30 -4 -42
-2 -42 7 0 7 -7 10 -15 7 -8 -4 -17 -1 -21 5 -5 7 -2 8 6 3 9 -6 11 -4 6 4 -5
7 -15 10 -23 7 -9 -4 -22 -1 -29 5 -7 6 -18 8 -24 4 -5 -3 -10 -2 -10 4 0 10
-38 27 -52 23 -5 -1 -8 2 -8 7 0 8 -33 20 -57 22 -5 0 -16 8 -25 16 -10 9 -18
13 -18 9 0 -4 -12 2 -26 13 -15 12 -31 21 -35 21 -9 0 -72 40 -164 104 -86 60
-96 69 -111 98 -8 15 -20 25 -27 22 -7 -2 -42 25 -78 62 -90 93 -89 91 -82 98
3 3 -2 8 -11 12 -9 3 -16 11 -16 16 0 6 -14 27 -30 47 -40 47 -37 43 -98 138
-28 45 -52 85 -52 88 0 4 -8 19 -19 33 -10 15 -38 77 -61 137 -23 61 -46 119
-51 130 -10 25 -44 167 -62 260 -18 92 -21 271 -6 365 6 41 13 92 15 113 2 21
9 48 15 59 6 11 8 22 5 25 -3 3 -1 14 5 25 6 11 9 22 6 24 -2 2 -12 -14 -22
-37z m-30 -76 c-43 -110 -56 -493 -21 -652 10 -46 24 -102 32 -124 8 -22 13
-42 11 -44 -2 -2 -19 3 -37 11 -18 7 -28 15 -23 17 6 3 4 41 -7 104 -9 55 -20
93 -23 85 -4 -8 -4 -4 0 10 3 14 4 48 2 75 -15 203 24 535 63 535 6 0 7 -8 3
-17z m603 -1608 c32 -31 49 -53 40 -49 -12 4 -18 1 -18 -10 0 -8 -9 -20 -20
-26 -11 -6 -23 -22 -26 -35 -4 -15 -13 -25 -24 -25 -10 0 -40 -22 -66 -50 -26
-27 -52 -50 -56 -50 -15 0 -107 75 -107 88 -1 6 8 12 20 12 12 0 17 4 13 11
-6 11 129 149 146 149 5 0 12 9 15 20 10 30 22 25 83 -35z m-453 -96 c15 -29
15 -32 -2 -45 -17 -14 -17 -15 2 -6 28 14 76 12 68 -2 -3 -6 -3 -8 2 -4 4 4
14 3 22 -3 23 -20 14 5 -12 34 -14 15 -21 27 -16 27 13 0 51 -40 51 -54 0 -15
62 -76 77 -76 11 0 35 -23 92 -88 11 -13 17 -31 14 -40 -4 -15 -3 -15 6 -2 9
12 21 4 68 -49 68 -75 97 -135 80 -166 -6 -11 -12 -26 -13 -33 -4 -20 -16 -29
-21 -14 -5 13 -24 17 -21 5 1 -5 -2 -18 -6 -31 -6 -17 -13 -21 -28 -16 -14 4
-18 3 -13 -6 8 -12 -25 -41 -37 -34 -5 3 -8 -1 -8 -8 0 -8 -9 -21 -20 -31 -22
-18 -19 -37 6 -37 8 0 14 -4 14 -10 0 -5 -6 -10 -13 -10 -18 0 -49 34 -40 43
3 4 0 7 -8 7 -22 0 -79 56 -79 78 0 12 -9 22 -21 25 -12 3 -18 10 -14 16 3 6
11 9 16 6 5 -3 6 1 3 10 -6 14 -8 14 -19 -1 -16 -23 -33 -10 -41 31 -3 19 -10
35 -15 35 -5 0 -6 -7 -3 -15 4 -8 2 -15 -2 -15 -12 0 -41 20 -31 20 14 0 -21
30 -35 30 -7 0 -26 14 -42 30 -16 17 -34 30 -41 30 -6 0 -42 29 -80 65 -38 36
-73 65 -77 65 -5 0 -8 12 -8 26 0 20 4 25 16 20 8 -3 12 -2 9 4 -4 6 8 18 24
28 17 9 29 22 27 28 -2 6 2 11 10 11 21 0 17 -14 -8 -31 -12 -9 -17 -16 -10
-16 7 0 11 -4 8 -9 -3 -5 0 -11 8 -14 9 -4 18 8 26 33 7 22 16 37 20 35 4 -3
10 4 13 16 4 16 3 18 -8 9 -15 -12 -35 -6 -35 10 0 13 37 46 87 79 23 16 40
31 36 35 -3 3 -3 6 0 6 4 0 14 -14 22 -31z m634 -96 c20 -25 21 -27 4 -47 -10
-11 -27 -28 -38 -38 -11 -9 -16 -17 -11 -18 13 0 -33 -38 -55 -45 -11 -4 -19
-14 -19 -23 0 -14 1 -14 13 -1 6 8 29 26 49 39 25 17 33 27 25 33 -8 6 -7 7 3
4 8 -2 27 7 43 21 15 14 27 21 27 15 0 -13 -79 -85 -132 -121 -21 -13 -38 -30
-38 -38 0 -19 -30 -45 -42 -37 -7 4 -4 12 8 22 11 9 23 23 26 32 6 15 4 15
-23 2 -16 -8 -29 -20 -29 -26 -1 -7 -14 4 -31 23 l-30 35 43 41 c24 22 57 56
74 75 42 47 83 79 99 79 8 0 23 -12 34 -27z m1823 -285 c2 -6 -3 -50 -13 -97
-21 -109 -39 -207 -45 -246 -11 -78 -15 -102 -26 -131 -10 -29 -13 -31 -61
-28 -28 1 -53 8 -58 16 -8 12 -13 4 -10 -16 1 -5 -5 -3 -14 4 -10 8 -19 10
-23 4 -4 -5 -28 -9 -53 -10 -42 -1 -46 1 -42 20 4 18 3 19 -6 4 -9 -14 -24
-16 -76 -13 -75 4 -114 19 -72 27 14 3 31 2 38 -3 7 -4 19 -5 26 -2 12 5 12 7
2 14 -10 6 -10 11 -1 22 22 26 -17 30 -40 5 -11 -13 -17 -17 -13 -10 4 8 -1
12 -14 12 -12 0 -21 -4 -21 -10 0 -5 -5 -10 -10 -10 -6 0 -2 12 7 27 10 15 13
24 6 20 -6 -4 -14 -3 -17 2 -3 5 2 12 11 15 9 4 20 1 24 -6 6 -9 11 -9 23 1 9
8 16 18 16 24 0 7 -4 7 -12 -1 -14 -14 -32 -16 -24 -3 4 5 -3 7 -14 4 -11 -3
-20 0 -20 6 0 9 -5 9 -21 0 -16 -8 -20 -8 -14 1 5 9 1 9 -16 -1 -33 -17 -71
-21 -63 -6 19 33 26 38 42 25 13 -11 14 -10 3 10 -14 26 -26 27 -65 7 -30 -16
-30 -16 -11 5 10 11 26 20 36 20 22 0 33 16 18 26 -7 4 -9 3 -6 -3 8 -13 -36
-11 -45 2 -5 6 -8 5 -8 -2 0 -8 -9 -11 -22 -9 -13 3 -27 5 -33 6 -5 0 -1 8 11
18 11 10 18 24 16 32 -3 8 10 2 27 -15 28 -26 34 -28 53 -16 19 12 23 11 35
-5 8 -11 13 -13 13 -5 0 7 -8 20 -18 29 -9 10 -13 14 -8 10 15 -11 36 -10 36
3 0 5 -6 7 -12 3 -7 -4 -4 2 6 14 18 21 18 23 2 41 -13 14 -14 21 -5 27 7 4
10 3 7 -2 -3 -5 0 -15 8 -22 8 -7 14 -10 14 -6 0 3 7 1 16 -6 12 -11 15 -11
12 0 -2 7 3 15 11 18 9 3 11 0 6 -8 -6 -10 -4 -12 9 -7 10 4 22 7 28 7 6 0 8
7 5 15 -4 8 -1 17 5 21 7 4 8 3 4 -4 -10 -17 6 -15 32 4 28 20 43 10 16 -11
-17 -13 -17 -14 -1 -15 9 0 17 5 17 10 0 6 4 10 10 10 8 0 130 79 130 85 0 8
-45 -4 -48 -13 -2 -7 -8 -12 -13 -12 -6 0 -7 5 -3 11 4 8 0 8 -15 0 -11 -7
-21 -8 -21 -4 0 4 -22 6 -50 5 -27 -2 -48 -7 -45 -12 6 -10 -23 -35 -32 -26
-3 3 -1 6 5 6 7 0 12 5 12 10 0 13 -36 13 -62 -1 -13 -7 -18 -7 -14 -1 8 13
-202 11 -221 -1 -7 -5 -13 -4 -13 0 0 5 -8 9 -17 10 -19 1 -65 7 -143 19 -25
4 -51 6 -57 5 -7 -1 -13 6 -13 15 0 12 6 15 23 10 78 -19 239 -28 417 -23 229
8 261 11 400 41 123 27 157 30 162 14z m-2597 -72 l60 -54 -44 -41 c-24 -22
-53 -43 -65 -47 -12 -4 -26 -10 -31 -15 -7 -5 -30 8 -58 32 -50 43 -50 42 -3
89 11 11 16 20 11 20 -5 0 6 16 25 35 19 19 36 35 39 35 4 0 33 -24 66 -54z
m-381 -88 c6 -4 13 -4 16 0 7 10 31 16 63 15 16 0 24 3 17 7 -8 5 -9 10 -2 14
6 3 13 -3 17 -14 3 -11 13 -20 21 -20 8 0 14 -4 14 -10 0 -5 3 -9 8 -9 17 3
35 -1 29 -7 -3 -3 15 -24 41 -47 36 -31 69 -83 72 -114 0 0 10 1 23 3 12 2 16
2 10 -2 -7 -3 -13 -13 -13 -21 0 -10 -6 -13 -16 -9 -9 3 -12 2 -9 -5 12 -18
-15 -40 -36 -28 -11 5 -24 7 -29 4 -20 -12 -9 12 14 34 15 14 30 20 37 16 8
-5 10 -4 5 3 -10 16 -33 15 -43 -2 -4 -7 -14 -15 -22 -18 -8 -2 -16 -14 -18
-27 -3 -20 0 -23 22 -19 19 4 23 2 15 -7 -7 -9 -6 -16 3 -24 17 -14 28 -4 19
17 -5 14 -3 15 10 4 13 -10 17 -10 22 3 3 9 11 13 18 9 7 -5 9 -2 6 7 -7 18
17 55 26 40 4 -5 2 -12 -4 -16 -6 -4 -5 -12 5 -21 8 -9 15 -24 15 -34 0 -13 5
-17 15 -14 10 4 15 0 16 -12 0 -11 3 -14 5 -7 3 7 0 22 -6 33 -17 32 -6 35 24
5 48 -48 60 -73 45 -93 -12 -15 -12 -16 2 -4 14 10 18 10 23 -4 4 -9 5 -18 4
-19 -48 -32 -68 -49 -68 -61 0 -8 -4 -14 -8 -14 -5 0 -24 -15 -43 -33 -72 -69
-111 -78 -148 -34 -7 9 -19 13 -27 10 -8 -3 -14 1 -14 11 0 9 -10 20 -22 25
-29 11 -61 49 -53 61 4 6 0 10 -8 10 -15 0 -115 70 -191 135 -54 45 -209 194
-185 177 16 -12 29 -7 29 10 0 5 -4 6 -10 3 -6 -3 -7 1 -4 10 4 10 13 13 26 9
14 -4 18 -2 14 5 -4 6 -2 11 4 11 6 0 18 7 26 15 10 9 25 12 44 8 23 -4 30 -2
30 11 0 9 5 16 11 16 5 0 7 6 3 13 -5 8 -2 8 9 -2 11 -9 17 -10 17 -2 0 6 9
11 21 11 11 0 17 5 14 10 -14 23 8 30 23 8 9 -13 20 -26 26 -30z m-117 -392
l58 -54 -73 -72 c-39 -39 -72 -78 -72 -86 0 -9 -4 -13 -9 -10 -5 3 -14 -1 -21
-9 -11 -13 -10 -14 4 -9 24 9 19 -5 -10 -28 -14 -11 -23 -23 -20 -26 9 -9 -26
-42 -37 -35 -5 3 -7 1 -3 -5 3 -6 -2 -13 -13 -17 -22 -7 -36 -35 -18 -35 7 0
0 -12 -15 -25 -33 -29 -35 -35 -8 -28 11 3 20 11 20 18 0 22 28 25 35 4 6 -17
9 -18 23 -7 13 11 15 10 9 -4 -3 -10 -2 -18 3 -18 5 0 7 -7 4 -15 -8 -21 1
-19 30 8 14 12 35 31 48 41 13 12 17 21 10 24 -6 2 -8 10 -5 18 3 9 10 11 21
5 12 -7 27 2 59 34 24 24 43 42 43 40 0 -2 11 7 25 20 13 14 28 25 34 25 16 0
0 -40 -23 -55 -11 -9 -21 -21 -21 -28 -1 -6 -7 -11 -14 -9 -7 1 -10 -2 -6 -7
7 -12 -34 -36 -54 -32 -9 2 -12 -3 -7 -14 3 -9 2 -13 -3 -10 -5 3 -12 -3 -15
-13 -4 -11 -24 -33 -46 -51 -39 -31 -68 -71 -52 -71 4 0 30 20 56 45 27 25 50
45 52 45 8 0 58 56 56 63 -1 4 2 6 7 5 4 -2 39 28 76 65 37 37 74 67 82 65 9
-2 -17 -32 -69 -80 -105 -95 -354 -342 -389 -385 -15 -18 -24 -35 -20 -39 3
-4 -2 -4 -11 -1 -10 4 -18 2 -18 -4 0 -5 -11 -20 -25 -33 -13 -13 -22 -26 -18
-29 3 -4 1 -7 -5 -7 -14 0 -112 -94 -112 -108 0 -6 5 -12 12 -14 8 -3 -1 -18
-22 -40 -39 -39 -67 -53 -72 -36 -5 13 -28 2 -28 -13 0 -6 5 -7 10 -4 6 3 10
1 10 -5 0 -7 7 -7 23 1 22 12 22 12 3 -10 -11 -12 -22 -17 -26 -11 -3 5 -13 1
-24 -11 -14 -17 -20 -18 -32 -8 -12 9 -13 9 -9 -3 4 -10 -11 -23 -50 -43 -39
-19 -54 -32 -50 -43 3 -9 0 -12 -7 -9 -8 3 -14 -5 -14 -19 -1 -18 3 -24 17
-24 11 0 22 7 25 15 4 8 10 15 15 15 5 0 4 -9 -3 -19 -12 -19 -58 -35 -58 -21
0 4 -7 11 -16 14 -20 8 -107 -66 -90 -77 7 -5 1 -16 -19 -33 -22 -19 -24 -23
-7 -15 12 7 22 10 22 7 0 -2 3 -12 7 -22 4 -11 3 -15 -4 -11 -6 4 -20 -4 -31
-18 -11 -13 -22 -22 -25 -18 -3 3 -9 -6 -12 -20 -4 -15 -12 -24 -19 -21 -7 3
-19 -2 -26 -10 -7 -9 -17 -13 -22 -10 -5 3 -8 -2 -6 -12 2 -12 -4 -19 -17 -21
-19 -3 -19 -3 -1 5 13 6 16 11 9 15 -6 4 -22 3 -35 -3 -30 -13 -123 -80 -123
-88 0 -4 -15 -18 -35 -31 -19 -13 -37 -27 -40 -32 -10 -14 -68 29 -86 63 -17
33 -17 33 4 15 24 -22 38 -7 22 23 -6 11 -8 26 -4 32 5 8 1 9 -12 4 -10 -4 -3
6 16 23 31 26 32 29 11 24 -17 -4 -22 -3 -17 5 13 21 -3 32 -31 21 -18 -6 -30
-6 -37 1 -7 7 -17 3 -32 -11 l-21 -20 -49 37 c-26 20 -59 47 -73 60 l-24 22
18 39 c10 21 20 49 21 63 2 14 8 26 14 28 5 2 10 8 10 14 0 6 8 17 18 25 12
10 14 16 5 19 -9 4 -3 15 17 35 16 17 29 36 27 42 -1 7 5 11 13 10 8 -1 26 7
40 18 l25 21 -30 -17 -30 -18 25 29 c14 16 29 31 34 33 5 2 26 21 46 41 20 21
56 51 80 66 31 21 39 30 27 32 -23 5 -22 24 1 20 19 -3 42 9 42 22 0 5 -8 7
-17 3 -12 -4 -8 5 11 25 17 18 36 32 43 32 12 0 17 13 14 33 -1 4 7 3 17 -2
14 -8 24 -6 38 5 18 14 18 15 -3 4 -13 -6 -23 -7 -23 -2 0 16 29 34 45 28 10
-3 15 1 15 12 0 9 5 24 11 32 8 12 9 10 4 -7 -7 -26 -1 -29 19 -11 9 9 11 20
5 35 -6 17 -5 21 6 16 9 -3 15 1 15 10 0 8 11 22 25 31 37 24 43 19 12 -9 -15
-14 -27 -29 -27 -32 0 -4 13 6 30 22 16 15 28 31 26 34 -5 7 16 37 27 39 4 1
11 2 16 2 4 0 33 22 62 49 30 28 57 45 60 39 4 -6 13 0 22 13 9 12 14 26 12
30 -3 4 2 9 10 13 8 3 12 12 9 21 -3 8 -1 15 6 15 6 0 8 -5 4 -11 -4 -8 1 -9
17 -4 36 11 50 26 47 49 -2 17 2 20 21 18 20 -2 22 0 11 13 -10 13 -9 15 8 15
11 0 23 -6 26 -12 3 -7 3 -2 0 11 -4 17 -3 21 6 16 7 -4 25 6 45 25 22 22 44
33 64 34 18 1 31 6 31 14 0 7 5 10 10 7 6 -3 10 -1 10 5 0 6 4 9 9 6 5 -3 11
1 14 8 3 8 1 17 -6 20 -7 2 -2 5 11 5 16 1 21 5 16 14 -5 7 -1 6 10 -3 26 -21
44 -21 49 1 3 10 13 19 22 19 11 0 15 5 11 15 -3 8 -1 15 4 15 6 0 10 -6 10
-12 0 -7 6 -5 12 6 18 32 112 116 130 116 9 0 43 -24 75 -54z m-4242 -3726
c-3 -5 1 -10 9 -10 9 0 16 5 16 10 0 6 7 10 15 10 8 0 15 -4 15 -10 0 -5 6
-10 13 -10 7 0 57 -45 112 -99 108 -107 149 -151 138 -151 -3 0 7 -13 23 -28
51 -50 94 -101 94 -112 0 -5 4 -10 10 -10 15 0 90 -116 90 -139 0 -25 -12 -26
-48 -4 -25 16 -141 110 -152 124 -3 3 -20 14 -38 23 -18 9 -30 21 -27 25 2 5
-4 11 -15 14 -11 3 -18 1 -14 -4 3 -5 -2 -9 -11 -9 -9 0 -13 -5 -10 -10 4 -7
-3 -8 -20 -4 -18 4 -40 -1 -71 -17 -39 -19 -47 -21 -55 -8 -7 11 -9 11 -9 -4
0 -16 -4 -15 -33 7 -26 20 -36 23 -46 13 -10 -9 -11 -8 -5 7 4 11 2 21 -7 26
-8 5 -12 24 -11 48 2 26 -3 44 -13 52 -20 17 -42 56 -26 46 6 -4 11 -3 11 3 0
5 -5 13 -10 16 -12 7 -3 46 13 56 5 4 7 19 5 33 -5 22 -2 26 14 20 16 -5 18
-2 13 27 -4 21 -1 35 7 40 10 7 10 9 1 9 -19 0 -16 18 5 23 9 3 18 5 20 6 2 0
0 -3 -3 -9z"/>
</g>
</svg>
