<?xml version="1.0" encoding="UTF-8"?>
<svg xmlns="http://www.w3.org/2000/svg" xmlns:xlink="http://www.w3.org/1999/xlink" width="750pt" height="750pt" viewBox="0 0 750 750" version="1.1">
<g id="surface1">
<path style=" stroke:none;fill-rule:nonzero;fill:rgb(0%,0%,0%);fill-opacity:1;" d="M 455.59375 5.230469 C 455.59375 8.21875 456.742188 25.398438 458.058594 43.574219 C 459.375 61.753906 460.527344 80.054688 460.527344 84.289062 L 460.527344 91.882812 L 446.21875 88.894531 C 438.324219 87.277344 431.578125 86.15625 431.25 86.527344 C 430.921875 86.777344 435.691406 89.019531 441.777344 91.382812 C 451.644531 95.242188 452.300781 95.742188 447.367188 95.242188 C 434.375 94 375.164062 91.882812 372.53125 92.628906 C 371.050781 93.003906 370.230469 93.875 370.722656 94.371094 C 371.21875 94.996094 385.363281 98.230469 402.136719 101.59375 C 418.75 104.957031 432.566406 107.941406 432.566406 108.316406 C 432.566406 108.691406 428.289062 110.929688 423.191406 113.296875 C 398.683594 124.253906 363.816406 147.410156 356.25 157.496094 C 347.367188 169.695312 342.597656 185.632812 340.953125 208.167969 C 340.460938 216.261719 339.308594 222.859375 338.652344 222.859375 C 337.828125 222.859375 328.949219 223.730469 318.75 224.851562 C 177.46875 239.542969 59.703125 310.507812 16.613281 406.625 C 5.425781 431.648438 1.480469 448.707031 0.492188 477.714844 C -1.152344 522.910156 7.566406 554.65625 32.074219 593.5 C 64.308594 644.421875 116.613281 685.507812 185.855469 714.144531 C 242.925781 737.796875 305.261719 749.503906 375 749.503906 C 444.738281 749.503906 507.074219 737.796875 564.144531 714.144531 C 667.761719 671.191406 734.867188 598.730469 748.519531 515.066406 C 751.644531 495.144531 749.671875 456.175781 744.242188 437.003906 C 725.988281 370.765625 675.988281 314.617188 599.507812 274.277344 C 549.507812 247.882812 492.105469 231.074219 430.097656 224.726562 C 419.242188 223.605469 410.03125 222.359375 409.539062 221.988281 C 409.046875 221.738281 408.71875 213.769531 408.71875 204.433594 C 408.71875 189.867188 409.375 186.128906 412.5 179.035156 C 416.117188 171.066406 417.597656 169.695312 450.824219 144.296875 C 473.027344 127.488281 486.019531 118.402344 487.007812 119.148438 C 487.992188 119.894531 484.703125 124.75 477.960938 132.71875 C 472.039062 139.441406 467.597656 145.292969 468.09375 145.542969 C 468.421875 145.917969 472.699219 143.425781 477.300781 139.941406 C 481.90625 136.578125 485.199219 134.710938 484.703125 135.707031 C 484.210938 136.703125 478.617188 147.910156 472.039062 160.359375 C 463.652344 176.417969 460.691406 183.640625 461.84375 184.511719 C 463.15625 185.507812 472.367188 175.796875 493.09375 151.769531 C 509.375 132.96875 523.683594 116.660156 525 115.289062 C 527.136719 113.171875 528.125 113.792969 540.132812 125 C 547.203125 131.722656 553.289062 136.828125 553.78125 136.453125 C 554.277344 136.207031 550 129.359375 544.40625 121.390625 C 538.816406 113.421875 534.539062 106.699219 534.703125 106.574219 C 535.03125 106.324219 550.328125 115.664062 568.75 127.117188 C 587.171875 138.695312 602.796875 148.15625 603.617188 148.15625 C 608.058594 148.15625 602.632812 142.058594 572.367188 113.792969 C 554.277344 96.738281 539.472656 82.542969 539.472656 82.171875 C 539.472656 81.796875 546.21875 79.558594 554.605469 77.191406 C 562.992188 74.949219 568.75 72.710938 567.761719 72.460938 C 566.613281 72.210938 558.222656 72.957031 549.011719 74.078125 C 533.058594 76.195312 532.238281 76.195312 530.097656 73.953125 C 528.949219 72.710938 527.960938 71.464844 527.960938 71.089844 C 528.125 70.71875 544.738281 62.5 564.96875 52.914062 C 598.683594 36.976562 606.414062 32.371094 599.507812 32.371094 C 598.191406 32.371094 574.671875 38.84375 547.367188 46.6875 C 520.066406 54.53125 497.203125 61.007812 496.382812 61.007812 C 495.722656 61.007812 495.066406 57.769531 494.902344 53.785156 C 494.574219 40.214844 492.597656 39.46875 490.132812 52.042969 C 488.816406 59.636719 487.171875 63.992188 485.691406 64.367188 C 484.375 64.742188 483.058594 64.742188 482.566406 64.367188 C 481.90625 63.871094 460.527344 1.992188 460.527344 0.496094 C 460.527344 0.25 459.375 0 458.058594 0 C 456.25 0 455.59375 1.371094 455.59375 5.230469 Z M 470.558594 44.199219 C 475.164062 57.894531 479.113281 69.222656 479.441406 69.472656 C 479.605469 69.597656 481.90625 69.222656 484.375 68.476562 C 488.816406 67.230469 488.816406 67.355469 487.992188 70.59375 C 487.5 72.585938 486.183594 78.808594 485.199219 84.660156 C 484.046875 90.511719 482.566406 95.742188 481.90625 96.238281 C 481.25 96.738281 477.300781 96.488281 473.191406 95.617188 C 466.117188 94.246094 465.460938 93.75 465.460938 90.265625 C 465.460938 87.027344 463.980469 64.867188 461.511719 28.011719 C 461.019531 21.789062 461.019531 17.304688 461.347656 18.054688 C 461.675781 18.675781 465.789062 30.503906 470.558594 44.199219 Z M 552.632812 54.90625 C 536.84375 62.375 523.191406 69.097656 522.367188 69.722656 C 521.546875 70.34375 522.53125 72.335938 524.671875 74.328125 L 528.289062 77.8125 L 512.007812 79.804688 C 503.125 80.925781 495.722656 81.796875 495.558594 81.671875 C 495.394531 81.671875 495.066406 77.9375 494.902344 73.582031 L 494.40625 65.613281 L 536.347656 53.410156 C 559.375 46.6875 578.78125 41.210938 579.769531 41.210938 C 580.59375 41.085938 568.421875 47.3125 552.632812 54.90625 Z M 560.691406 108.316406 C 575.328125 122.011719 586.84375 133.21875 586.347656 133.21875 C 585.855469 133.21875 573.847656 125.871094 559.703125 117.03125 C 545.394531 108.066406 532.894531 101.09375 531.742188 101.34375 C 530.097656 101.84375 519.738281 89.640625 519.738281 87.027344 C 519.738281 86.03125 531.742188 82.296875 533.058594 82.917969 C 533.550781 83.167969 546.050781 94.621094 560.691406 108.316406 Z M 442.269531 98.480469 C 467.433594 99.726562 467.433594 99.726562 482.074219 105.328125 C 490.132812 108.316406 496.710938 111.554688 496.710938 112.550781 C 496.710938 117.03125 492.105469 116.535156 444.902344 106.824219 C 418.75 101.46875 396.546875 96.863281 395.558594 96.488281 C 394.738281 96.238281 399.175781 96.238281 405.425781 96.488281 C 411.84375 96.863281 428.289062 97.734375 442.269531 98.480469 Z M 523.519531 110.058594 C 518.914062 116.285156 474.835938 166.832031 474.34375 166.460938 C 474.011719 166.210938 478.949219 156.25 485.199219 144.296875 C 496.546875 122.882812 496.875 122.511719 508.71875 113.546875 C 519.242188 105.578125 520.722656 104.707031 522.53125 106.574219 C 523.683594 107.695312 524.175781 109.3125 523.519531 110.058594 Z M 535.363281 268.925781 C 561.511719 277.015625 580.097656 286.105469 600.164062 300.546875 C 647.039062 334.660156 667.761719 369.769531 681.742188 439.742188 C 684.046875 451.195312 685.855469 461.28125 685.691406 462.152344 C 685.691406 463.023438 682.730469 457.792969 679.277344 450.324219 C 646.050781 380.726562 580.757812 328.808594 509.375 315.113281 C 497.367188 312.75 497.53125 312.25 510.691406 310.632812 C 530.757812 308.265625 546.050781 301.542969 546.050781 295.070312 C 546.050781 292.082031 537.007812 281.996094 525.328125 271.914062 C 520.230469 267.554688 516.777344 263.945312 517.597656 263.945312 C 518.421875 263.945312 526.480469 266.183594 535.363281 268.925781 Z M 535.363281 268.925781 "/>
</g>
</svg>
