<?xml version="1.0" encoding="UTF-8"?>
<svg xmlns="http://www.w3.org/2000/svg" xmlns:xlink="http://www.w3.org/1999/xlink" width="750pt" height="750pt" viewBox="0 0 750 750" version="1.1">
<g id="surface1">
<path style=" stroke:none;fill-rule:nonzero;fill:rgb(0%,0%,0%);fill-opacity:1;" d="M 363.667969 44.53125 C 338.425781 46.640625 318.441406 54.492188 305.769531 67.03125 L 301.957031 70.898438 L 310.609375 84.023438 L 319.367188 97.148438 L 317.824219 104.53125 C 315.867188 114.140625 315.867188 130.078125 317.824219 138.75 C 322.972656 161.367188 336.574219 178.125 357.074219 187.148438 C 366.757812 191.367188 383.140625 191.71875 394.058594 187.851562 C 425.789062 176.601562 443.613281 139.335938 434.648438 103.007812 C 433.515625 98.203125 432.382812 93.28125 432.074219 91.992188 C 431.765625 90.234375 433.515625 87.890625 438.976562 82.734375 L 446.1875 75.703125 L 442.273438 71.835938 C 431.351562 60.9375 415.695312 51.09375 402.816406 46.875 C 393.851562 43.945312 379.738281 43.125 363.667969 44.53125 Z M 380.769531 65.273438 C 382.726562 68.671875 384.273438 72.070312 384.273438 72.773438 C 384.273438 73.476562 382.726562 76.875 380.976562 80.390625 L 377.574219 86.835938 L 370.46875 86.484375 L 363.359375 86.132812 L 360.164062 79.453125 L 356.972656 72.773438 L 359.957031 66.5625 C 361.605469 63.164062 363.359375 60.117188 363.769531 59.765625 C 364.183594 59.414062 367.375 59.179688 370.878906 59.0625 L 377.164062 58.945312 Z M 380.769531 65.273438 "/>
<path style=" stroke:none;fill-rule:nonzero;fill:rgb(0%,0%,0%);fill-opacity:1;" d="M 312.671875 199.453125 C 304.53125 202.734375 302.988281 204.960938 284.132812 241.40625 C 277.644531 253.945312 266.722656 274.804688 260.027344 287.695312 C 253.332031 300.585938 247.355469 312.1875 246.945312 313.476562 C 246.429688 314.765625 244.78125 324.726562 243.132812 335.742188 C 241.484375 346.640625 238.1875 368.085938 235.921875 383.203125 C 230.355469 420.234375 230.355469 419.414062 231.800781 425.390625 C 232.726562 429.492188 232.726562 430.664062 231.800781 431.015625 C 228.914062 432.1875 222.117188 440.273438 220.363281 444.726562 C 217.789062 450.9375 217.890625 461.953125 220.363281 468.28125 C 221.394531 470.976562 222.835938 473.554688 223.453125 474.023438 C 224.277344 474.492188 223.765625 475.546875 222.011719 477.1875 C 218.507812 480.351562 218.820312 483.515625 223.144531 488.4375 L 226.75 492.539062 L 223.558594 501.445312 C 219.128906 514.101562 219.539062 513.632812 214.59375 511.640625 C 210.578125 510 210.371094 510.117188 209.855469 512.226562 C 209.445312 514.101562 210.164062 514.921875 213.566406 516.445312 C 215.832031 517.5 217.273438 518.554688 216.65625 518.789062 C 215.933594 519.140625 213.976562 518.4375 212.121094 517.382812 C 209.445312 515.742188 208.722656 515.625 208 517.03125 C 206.558594 519.492188 206.867188 519.960938 211.296875 521.953125 C 214.59375 523.476562 215.316406 524.296875 214.800781 525.9375 C 213.667969 529.101562 213.667969 529.921875 214.800781 530.390625 C 215.417969 530.625 218.820312 522.421875 222.527344 512.109375 C 226.234375 501.796875 229.636719 493.359375 230.253906 493.359375 C 233.035156 493.359375 239.011719 495.9375 239.011719 497.109375 C 239.011719 497.929688 238.496094 503.203125 237.878906 508.945312 L 236.640625 519.375 L 232.210938 518.671875 C 228.8125 518.203125 227.78125 518.4375 227.265625 519.960938 C 226.441406 522.421875 226.75 522.773438 231.695312 523.476562 C 234.066406 523.828125 235.921875 524.53125 235.921875 525.117188 C 235.921875 525.703125 235.300781 525.9375 234.683594 525.703125 C 233.964844 525.351562 231.800781 524.882812 230.046875 524.53125 C 226.957031 523.945312 226.648438 524.179688 226.648438 526.757812 C 226.648438 529.335938 227.058594 529.6875 230.769531 529.6875 C 234.683594 529.6875 234.890625 529.921875 234.890625 533.203125 C 234.890625 537.773438 236.847656 537.773438 237.671875 533.203125 C 238.1875 529.921875 238.597656 529.6875 242.71875 529.6875 C 246.53125 529.6875 247.253906 530.039062 247.253906 531.914062 C 247.253906 534.140625 249.003906 536.367188 249.929688 535.3125 C 250.34375 534.726562 248.796875 510 247.769531 500.742188 C 247.148438 496.054688 247.253906 495.820312 250.859375 493.828125 C 255.496094 491.367188 257.96875 487.265625 257.144531 483.515625 C 256.628906 481.171875 257.144531 480.117188 259.511719 478.242188 C 261.160156 476.835938 263.734375 473.085938 265.179688 469.6875 C 268.371094 462.539062 268.785156 452.578125 266.207031 445.429688 L 264.558594 440.742188 L 268.167969 437.109375 C 270.226562 435.117188 272.597656 431.25 273.421875 428.554688 C 274.347656 425.859375 278.054688 403.007812 281.867188 377.929688 L 288.667969 332.226562 L 296.496094 316.992188 C 300.722656 308.554688 304.429688 301.523438 304.53125 301.289062 C 304.738281 301.054688 304.945312 319.570312 304.945312 342.539062 L 304.945312 384.257812 L 301.957031 383.671875 C 297.425781 382.617188 292.890625 385.898438 291.65625 391.171875 C 291.140625 393.515625 288.976562 408.867188 286.917969 425.15625 C 283.414062 453.75 283.308594 454.921875 285.0625 458.203125 C 287.121094 462.304688 292.273438 464.648438 295.777344 463.007812 C 300.410156 461.015625 301.855469 457.851562 303.296875 446.367188 C 304.53125 436.640625 304.738281 448.476562 304.84375 552.070312 C 304.945312 679.335938 304.738281 674.414062 310.921875 684.609375 C 314.527344 690.46875 322.148438 696.5625 327.609375 697.851562 C 342.753906 701.484375 356.351562 694.453125 363.460938 679.101562 L 366.242188 673.242188 L 366.449219 574.21875 C 366.65625 519.726562 366.757812 471.679688 366.757812 467.460938 L 366.757812 459.726562 L 386.332031 459.726562 L 386.332031 485.039062 C 386.332031 498.984375 386.433594 546.679688 386.640625 591.210938 L 386.847656 672.070312 L 389.21875 677.929688 C 394.367188 690.585938 405.082031 698.789062 416.722656 698.90625 C 429.191406 699.023438 439.492188 691.992188 444.746094 679.921875 L 447.628906 673.242188 L 448.144531 560.15625 C 448.453125 497.929688 448.765625 447.890625 448.96875 448.945312 C 449.277344 451.289062 455.046875 457.5 459.167969 459.84375 C 463.597656 462.304688 472.355469 462.1875 477.609375 459.492188 C 482.554688 456.914062 488.015625 449.882812 489.355469 444.140625 C 489.871094 441.914062 490.796875 435 491.414062 428.90625 C 492.03125 422.8125 493.167969 411.445312 493.992188 403.710938 C 498.109375 366.09375 501.71875 327.1875 501.71875 321.914062 C 501.71875 315.585938 502.746094 318.164062 473.695312 255.46875 C 466.691406 240.351562 459.273438 224.296875 457.316406 219.960938 C 452.371094 208.59375 447.117188 202.148438 441.140625 199.921875 C 437.019531 198.28125 431.972656 198.046875 413.117188 198.28125 L 390.144531 198.632812 L 387.363281 209.765625 C 385.816406 215.859375 382.828125 228.28125 380.667969 237.304688 L 376.648438 253.710938 L 373.96875 244.335938 C 372.527344 239.179688 369.128906 226.640625 366.347656 216.445312 L 361.195312 198.046875 L 338.53125 198.164062 C 325.550781 198.164062 314.421875 198.75 312.671875 199.453125 Z M 357.484375 246.09375 L 357.484375 250.78125 L 316.277344 250.78125 L 316.277344 241.40625 L 357.484375 241.40625 Z M 438.460938 245.742188 L 438.253906 250.195312 L 417.960938 250.546875 L 397.664062 250.78125 L 397.664062 241.40625 L 438.566406 241.40625 Z M 456.285156 331.640625 C 456.285156 334.570312 454.738281 351.09375 452.882812 368.554688 L 449.589844 400.195312 L 448.867188 389.179688 C 448.453125 383.085938 448.144531 362.578125 448.144531 343.476562 L 448.25 308.789062 L 452.265625 317.578125 C 455.152344 324.023438 456.285156 327.773438 456.285156 331.640625 Z M 381.179688 393.046875 C 381.179688 401.25 380.667969 401.953125 374.484375 401.953125 C 368.304688 401.953125 367.789062 401.25 367.789062 393.046875 L 367.789062 385.546875 L 381.179688 385.546875 Z M 365.523438 394.335938 L 365.832031 400.78125 L 309.066406 400.78125 L 309.066406 395.625 C 309.066406 392.8125 308.859375 389.765625 308.550781 388.828125 C 308.140625 387.539062 313.1875 387.304688 336.574219 387.539062 L 365.214844 387.773438 Z M 447.117188 393.984375 L 447.117188 400.78125 L 383.242188 400.78125 L 383.242188 394.570312 C 383.242188 391.054688 383.449219 388.007812 383.652344 387.773438 C 383.859375 387.539062 398.28125 387.304688 415.589844 387.304688 L 447.117188 387.304688 Z M 239.527344 438.28125 C 244.367188 442.617188 250.34375 444.609375 256.113281 443.554688 C 260.234375 442.851562 260.644531 443.085938 262.089844 446.367188 C 264.355469 451.40625 264.148438 461.953125 261.675781 467.460938 C 259.617188 472.265625 254.15625 478.125 251.890625 478.125 C 251.167969 478.125 250.34375 477.304688 249.929688 476.367188 C 249.3125 474.492188 244.058594 474.140625 240.554688 475.78125 C 239.21875 476.367188 237.980469 476.132812 236.949219 475.195312 C 236.125 474.257812 233.550781 473.4375 231.285156 473.203125 C 227.679688 472.851562 226.957031 472.265625 224.691406 467.8125 C 220.054688 457.96875 222.941406 443.4375 230.769531 437.34375 C 232.625 435.9375 234.476562 434.765625 234.890625 434.765625 C 235.300781 434.765625 237.363281 436.289062 239.527344 438.28125 Z M 239.527344 438.28125 "/>
</g>
</svg>
