<?xml version="1.0" standalone="no"?>
<!DOCTYPE svg PUBLIC "-//W3C//DTD SVG 20010904//EN"
 "http://www.w3.org/TR/2001/REC-SVG-20010904/DTD/svg10.dtd">
<svg version="1.0" xmlns="http://www.w3.org/2000/svg"
 width="2000.000000pt" height="1997.000000pt" viewBox="0 0 2000.000000 1997.000000"
 preserveAspectRatio="xMidYMid meet">
<g transform="translate(0.000000,1997.000000) scale(0.100000,-0.100000)"
fill="#000000" stroke="none">
<path d="M11114 19416 c-37 -26 -47 -92 -42 -255 l6 -148 -122 57 c-169 81
-323 142 -373 148 -37 4 -43 2 -43 -14 0 -16 257 -474 428 -764 28 -47 49 -86
48 -88 -2 -1 -34 12 -71 30 -76 35 -165 48 -190 28 -51 -42 19 -245 247 -721
l65 -135 -64 42 c-35 23 -85 47 -111 54 -43 11 -48 10 -64 -10 -10 -12 -18
-30 -18 -41 0 -61 74 -363 169 -690 l19 -66 -80 82 c-115 120 -175 142 -197
72 -26 -82 -51 -379 -51 -622 0 -172 -9 -206 -27 -102 -15 92 -51 186 -75 201
-45 28 -78 -43 -103 -225 -18 -131 -45 -497 -45 -610 0 -42 -3 -91 -6 -108
l-6 -31 -62 49 c-33 26 -130 96 -214 156 -208 146 -279 171 -340 120 -44 -37
-56 -93 -49 -243 3 -70 9 -136 13 -146 4 -11 -33 14 -82 55 -189 157 -375 279
-425 279 -62 0 -63 -82 -5 -252 19 -56 34 -104 32 -105 -5 -5 -227 57 -346 97
-69 24 -165 61 -215 82 -49 22 -125 56 -168 75 -87 38 -130 41 -135 6 -4 -29
30 -95 89 -170 30 -38 44 -63 35 -63 -31 0 -156 44 -241 85 -49 24 -135 73
-190 110 -77 51 -106 65 -130 63 -29 -3 -30 -5 -28 -46 1 -28 20 -80 53 -149
27 -58 49 -108 47 -110 -11 -10 -538 182 -639 233 -37 19 -74 34 -83 34 -26 0
-17 -58 33 -206 l48 -141 -36 9 c-19 5 -195 63 -390 129 -504 170 -485 165
-517 153 -24 -8 -28 -16 -31 -53 -2 -23 4 -64 12 -89 9 -25 16 -49 16 -53 0
-4 -28 8 -62 26 -35 18 -182 86 -328 150 -332 147 -563 263 -711 358 -63 40
-266 180 -453 311 -411 289 -593 411 -666 445 -44 20 -71 25 -131 26 -77 0
-77 0 -260 92 -101 51 -215 103 -254 116 -172 60 -469 130 -665 157 -47 7
-128 28 -180 47 -239 89 -474 151 -605 160 -81 5 -93 3 -115 -15 -23 -19 -25
-27 -23 -94 3 -139 147 -611 298 -979 5 -13 -12 -9 -77 17 -87 35 -173 45
-196 22 -20 -20 -13 -67 24 -162 42 -105 206 -435 322 -648 l80 -147 -77 6
c-146 11 -192 -47 -140 -179 40 -103 212 -382 377 -615 l52 -72 -57 26 c-31
15 -78 28 -104 31 -41 4 -49 1 -59 -18 -6 -12 -9 -33 -5 -48 10 -40 86 -151
230 -336 156 -201 254 -347 233 -346 -2 0 -25 7 -52 15 -66 20 -136 20 -136 0
0 -8 54 -258 120 -555 66 -297 120 -543 120 -547 0 -5 -35 -8 -77 -8 -124 0
-164 -39 -184 -182 -17 -120 3 -618 37 -908 l6 -50 -39 66 c-137 229 -298 431
-357 445 -79 19 -91 -65 -50 -356 25 -179 129 -689 180 -890 4 -14 -17 11 -46
55 -152 231 -322 425 -373 425 -47 0 -52 -20 -51 -189 2 -170 22 -367 90 -886
24 -187 44 -353 44 -370 l-1 -30 -38 42 c-21 23 -105 134 -186 245 -170 232
-247 329 -317 399 -42 42 -55 50 -81 47 -24 -2 -32 -9 -39 -33 -13 -42 -2
-192 29 -440 36 -277 39 -551 8 -604 -25 -43 -51 -52 -98 -36 -71 24 -122 68
-380 328 -268 267 -328 317 -384 317 -47 0 -57 -25 -50 -124 7 -94 37 -209
141 -546 83 -268 123 -440 113 -482 -5 -18 -33 -45 -85 -84 -88 -65 -406 -276
-624 -413 l-148 -94 0 -4148 0 -4149 5213 0 5212 1 -40 32 c-274 221 -529 539
-775 967 -76 133 -285 551 -342 685 l-34 80 -325 6 c-321 6 -325 6 -444 37
-66 17 -181 52 -255 77 l-135 45 -17 -22 c-26 -33 -108 -205 -157 -328 -46
-117 -81 -184 -96 -184 -18 -1 -36 54 -76 237 -106 490 -139 587 -198 587 -38
0 -107 -74 -232 -250 -184 -259 -262 -312 -307 -213 -15 33 -17 74 -17 298 0
302 9 403 91 1105 l6 55 -56 -88 c-128 -203 -337 -431 -489 -535 -76 -52 -242
-137 -282 -144 -23 -4 -32 27 -34 120 -3 144 41 324 180 750 55 169 113 359
130 422 27 107 49 260 37 260 -3 0 -50 -18 -104 -39 -174 -68 -426 -143 -684
-201 -164 -37 -452 -92 -457 -87 -2 3 39 36 92 76 304 229 575 505 719 735 55
88 113 221 123 283 12 72 -52 110 -165 99 -83 -9 -227 -55 -527 -171 -374
-144 -614 -215 -730 -215 -33 0 -36 2 -30 23 4 12 34 73 66 136 144 276 420
627 787 1000 97 100 175 181 172 181 -3 0 -61 -11 -130 -24 -343 -67 -775 -93
-1080 -66 -114 10 -349 50 -423 70 -44 13 -44 17 3 115 60 125 178 226 455
393 211 126 271 166 323 216 51 48 67 76 76 132 25 149 -140 467 -359 691
-110 112 -131 120 -357 132 -174 9 -227 25 -274 86 -38 50 -46 90 -24 117 17
22 26 23 212 28 206 5 238 12 238 53 0 46 -67 127 -300 362 -259 262 -313 325
-332 387 -11 36 -10 42 8 55 28 22 119 11 314 -37 247 -62 345 -80 422 -80 60
0 72 3 94 25 55 55 10 127 -238 375 -242 242 -308 337 -308 440 0 73 59 88
200 49 265 -72 308 -81 380 -81 85 -1 123 14 163 61 82 98 17 252 -239 556
-203 242 -236 297 -201 332 26 27 78 7 341 -126 282 -143 384 -181 478 -181
152 0 197 108 114 273 -41 83 -102 162 -264 340 -123 135 -175 204 -169 221
10 27 124 7 327 -59 331 -107 456 -137 590 -142 106 -4 119 -3 160 19 121 62
102 169 -79 448 -103 158 -114 208 -54 231 58 22 151 -4 478 -134 214 -85 296
-109 372 -110 66 0 99 21 125 81 19 42 20 58 14 183 -8 152 -2 179 40 179 38
0 90 -31 184 -110 92 -77 157 -113 191 -108 45 6 59 45 70 182 5 76 15 139 24
157 20 38 59 63 88 55 45 -11 132 -86 246 -212 125 -136 186 -183 220 -165 28
15 32 35 35 178 2 98 7 136 20 161 19 37 69 72 103 72 37 0 101 -67 178 -185
79 -121 97 -140 137 -150 22 -6 33 -1 58 23 29 30 30 33 30 124 1 125 19 168
84 193 59 23 117 15 170 -22 38 -27 65 -64 201 -276 34 -53 44 -62 69 -62 41
0 60 35 86 160 25 117 50 167 95 191 64 34 94 9 144 -122 22 -58 30 -69 50
-69 36 0 58 39 86 154 30 119 46 154 79 177 22 14 27 14 55 0 16 -9 65 -64
110 -124 90 -121 121 -146 149 -118 14 14 17 33 14 124 -3 97 -1 110 17 126
31 28 54 12 125 -84 71 -97 99 -114 145 -89 36 20 38 69 6 154 -41 110 -7 109
103 -3 114 -116 216 -277 210 -330 -3 -23 -8 -27 -40 -30 -34 -3 -44 3 -107
62 -69 65 -103 80 -114 52 -8 -20 4 -59 53 -166 47 -106 51 -153 11 -158 -42
-6 -68 7 -178 89 -128 96 -151 109 -163 89 -11 -18 -7 -38 41 -228 58 -230 54
-255 -41 -220 -207 75 -252 82 -315 52 -58 -27 -63 -57 -39 -266 6 -52 5 -58
-21 -83 -27 -27 -27 -28 -133 -21 -331 20 -325 20 -346 -3 -16 -18 -21 -43
-26 -139 -3 -64 -12 -127 -18 -139 -18 -33 -69 -30 -162 11 -107 47 -152 59
-184 46 -39 -15 -41 -34 -11 -109 31 -77 26 -99 -25 -126 -39 -20 -67 -19
-180 7 -114 25 -159 20 -203 -23 -29 -30 -30 -31 -23 -107 3 -42 9 -88 12
-102 11 -50 -11 -61 -160 -81 -146 -19 -229 -39 -260 -62 -26 -19 -16 -50 38
-116 25 -30 51 -68 57 -84 12 -27 10 -32 -13 -52 -29 -25 -121 -45 -209 -45
-101 -1 -227 -19 -277 -40 -27 -12 -64 -37 -83 -56 -39 -41 -36 -53 29 -97 68
-46 71 -61 19 -113 -38 -37 -50 -44 -84 -44 -22 0 -60 7 -83 15 -100 35 -184
10 -269 -80 -58 -61 -81 -107 -81 -160 0 -48 17 -85 83 -183 72 -105 76 -143
21 -196 -50 -49 -118 -72 -342 -117 -250 -51 -332 -83 -332 -130 0 -28 54 -63
216 -139 221 -105 253 -122 285 -158 27 -31 28 -35 15 -60 -20 -39 -25 -70
-36 -230 -10 -155 -29 -218 -72 -245 -12 -8 -90 -27 -173 -42 -425 -76 -847
-190 -1018 -276 -70 -35 -211 -142 -251 -189 -18 -22 -26 -43 -26 -71 0 -34 5
-43 43 -70 56 -41 445 -232 732 -359 126 -56 233 -106 236 -112 4 -5 9 -49 13
-96 34 -427 173 -1155 316 -1647 296 -1023 716 -1732 1258 -2122 167 -121 429
-237 627 -277 341 -70 729 -30 1132 116 l121 44 91 -103 c435 -492 1193 -898
1961 -1050 128 -26 151 -27 425 -27 176 0 315 5 355 12 45 8 66 8 71 1 14 -24
359 55 466 107 133 64 250 289 323 619 12 55 24 106 26 114 3 8 36 -61 73
-155 225 -558 393 -854 485 -854 100 0 197 274 281 790 9 58 20 108 24 113 4
4 45 -23 92 -61 46 -37 152 -113 234 -168 272 -183 461 -284 538 -287 41 -2
42 -1 45 34 2 22 -6 58 -22 93 -52 117 -213 372 -406 642 -112 156 -109 151
-69 127 212 -130 750 -409 913 -472 127 -50 212 -64 222 -36 21 54 -92 194
-582 720 -336 362 -444 489 -444 528 0 23 38 27 133 17 381 -44 1233 -267
1420 -373 31 -18 192 -142 358 -277 1369 -1113 2061 -1644 2414 -1855 270
-161 318 -116 127 121 -203 251 -616 672 -1782 1814 -1132 1109 -1375 1359
-1346 1388 27 26 300 12 1411 -73 921 -70 1194 -89 1570 -106 270 -12 540 -7
620 13 43 11 50 17 53 39 7 57 -144 153 -583 369 -165 81 -453 219 -640 305
-187 87 -432 200 -545 252 -334 155 -797 386 -915 457 -60 37 -128 84 -150
106 -36 37 -38 41 -23 56 60 60 380 95 1458 159 988 58 1356 91 1523 136 l37
10 0 93 0 93 -77 55 c-249 177 -537 340 -1089 617 l-314 157 83 34 c284 116
641 285 802 381 98 58 185 135 185 165 0 47 -32 124 -70 166 -44 51 -142 106
-240 136 -70 21 -390 81 -1460 276 l-675 123 120 27 c1223 282 2094 510 2257
592 109 55 58 153 -126 243 -124 60 -234 90 -426 117 -595 83 -2544 369 -2595
381 -26 6 -23 8 30 15 131 17 225 71 225 129 0 48 -77 121 -202 189 l-46 25
161 34 c89 19 165 37 169 40 4 4 -66 54 -156 111 -91 58 -161 108 -158 111 4
3 39 11 79 17 142 23 243 77 243 131 0 50 -52 95 -173 147 l-49 21 65 5 c102
9 157 53 157 127 0 33 -34 68 -81 81 -19 6 -70 10 -114 10 l-80 0 135 78 c79
45 135 83 135 92 0 19 -80 51 -231 93 l-114 32 0 63 c0 133 -52 300 -131 422
-22 34 -37 65 -34 71 19 29 240 -8 419 -71 42 -14 62 -17 67 -9 3 6 10 64 13
128 8 124 -5 298 -30 419 -60 292 -223 553 -458 736 -169 132 -257 172 -501
231 -411 99 -798 104 -1085 13 -369 -117 -678 -415 -820 -789 -55 -148 -80
-276 -87 -458 -7 -167 -14 -171 -34 -16 -15 124 -6 331 20 445 74 323 261 588
546 775 197 129 366 187 650 223 l70 9 -90 2 -90 2 -237 362 c-221 339 -243
376 -343 592 -156 335 -387 787 -453 885 -39 58 -64 86 -79 88 -20 3 -23 -1
-23 -30 0 -43 30 -165 74 -302 19 -59 31 -104 27 -100 -55 64 -166 216 -204
279 -69 115 -335 651 -454 915 -321 710 -602 1430 -783 2000 -192 608 -233
718 -360 975 -199 404 -444 696 -673 800 -72 33 -145 42 -173 21z m-8419
-2330 c88 -30 304 -110 480 -179 396 -155 568 -210 854 -277 124 -29 243 -59
265 -67 97 -34 213 -111 731 -488 398 -290 581 -416 851 -588 501 -319 834
-483 888 -438 23 19 20 46 -10 96 -35 61 -30 95 19 119 36 17 41 17 81 2 51
-19 151 -119 215 -214 58 -86 119 -215 133 -285 11 -54 11 -59 -9 -78 -31 -31
-65 -19 -103 36 -44 65 -72 81 -110 65 -57 -23 -62 -60 -29 -190 25 -96 21
-131 -16 -156 -46 -30 -98 7 -323 233 -151 152 -209 203 -227 203 -31 0 -34
-11 -43 -162 -8 -130 -24 -178 -58 -178 -55 0 -197 111 -572 449 -407 366
-463 411 -490 389 -16 -14 -14 -45 17 -188 22 -98 20 -142 -6 -172 -14 -16
-18 -16 -47 -1 -50 25 -227 205 -552 559 -315 344 -429 458 -503 502 -43 25
-44 25 -58 6 -26 -34 -11 -103 52 -234 44 -92 55 -124 46 -133 -31 -31 -147
80 -456 438 -233 270 -352 395 -376 395 -25 0 -25 -40 -2 -175 9 -55 13 -112
10 -127 -11 -41 -40 -52 -81 -33 -83 40 -362 320 -671 675 -65 74 -133 149
-151 167 -32 30 -44 69 -26 87 15 16 122 -6 277 -58z m6761 -1793 c20 -15 84
-86 144 -157 169 -206 244 -268 289 -239 23 15 18 59 -19 154 -49 128 -43 199
17 199 44 0 87 -28 209 -136 158 -140 202 -162 264 -131 21 10 26 22 30 66 4
44 10 58 32 74 24 18 30 19 60 6 18 -7 114 -92 213 -189 189 -184 226 -210
264 -184 19 14 20 22 15 83 -6 61 -4 71 15 90 20 20 23 21 54 5 93 -47 526
-545 831 -956 190 -257 313 -459 299 -494 -3 -8 -19 -14 -39 -14 -27 0 -46 11
-94 55 -62 57 -100 70 -100 36 0 -26 80 -134 255 -346 255 -309 333 -426 305
-460 -39 -46 -103 0 -264 188 -83 97 -134 102 -120 12 3 -22 19 -98 36 -170
18 -77 31 -162 31 -208 2 -72 0 -80 -22 -98 -13 -10 -29 -19 -36 -19 -27 0
-80 57 -141 150 -66 102 -97 136 -113 125 -22 -13 -9 -67 44 -187 62 -141 73
-181 55 -203 -31 -37 -82 -15 -200 85 -84 70 -116 87 -145 76 -21 -8 -19 -67
5 -146 35 -114 23 -176 -32 -168 -16 2 -32 20 -54 62 -35 65 -50 78 -79 70
-52 -15 -56 -55 -19 -188 32 -111 28 -146 -14 -146 -19 0 -47 16 -87 50 -91
76 -133 103 -150 96 -21 -8 -19 -49 5 -96 49 -97 -1 -131 -106 -71 -92 53
-184 160 -170 197 10 25 48 33 85 18 44 -18 70 -18 93 3 24 22 23 33 -12 113
-35 80 -39 131 -10 160 30 30 59 25 145 -30 136 -86 156 -58 65 94 -68 116
-81 162 -56 201 12 18 25 25 50 25 33 0 45 -7 170 -93 40 -28 76 -35 76 -16 0
23 -96 148 -358 462 -329 396 -423 520 -456 599 -14 33 -14 38 0 52 24 25 48
19 118 -29 65 -44 97 -53 125 -36 54 35 -220 415 -498 691 -130 128 -218 196
-269 206 -23 5 -33 1 -46 -17 -28 -41 -17 -88 39 -164 42 -58 37 -85 -16 -85
-39 0 -73 32 -141 134 -84 126 -124 166 -165 166 -22 0 -36 -6 -43 -21 -15
-27 -3 -60 54 -152 54 -88 63 -118 41 -141 -41 -40 -120 -11 -248 92 -102 83
-123 96 -144 88 -27 -11 -9 -64 60 -181 77 -131 96 -185 73 -220 -39 -59 -88
-37 -166 75 -55 79 -83 105 -100 95 -22 -14 -7 -69 50 -184 33 -67 60 -129 60
-137 0 -8 -10 -14 -23 -14 -21 0 -49 15 -182 98 -27 17 -62 34 -77 37 -36 9
-46 -13 -64 -137 -14 -102 -22 -121 -57 -139 -15 -9 -29 -4 -69 20 -52 33 -91
38 -132 20 -26 -12 -38 -35 -56 -106 -8 -33 -17 -44 -36 -49 -39 -10 -94 1
-156 30 -30 14 -58 26 -61 26 -4 0 -7 -15 -7 -32 0 -45 -41 -130 -76 -157 -24
-19 -37 -22 -76 -17 -27 3 -69 9 -95 12 -40 5 -53 2 -75 -16 -34 -26 -35 -37
-3 -80 14 -19 25 -40 25 -47 0 -7 -20 -25 -44 -40 -24 -16 -127 -107 -228
-203 -185 -175 -241 -219 -272 -207 -40 16 -9 83 133 287 56 80 104 155 108
168 3 12 -9 77 -26 145 -17 67 -31 141 -31 164 0 41 19 73 43 73 19 0 61 -32
97 -73 63 -73 121 -82 133 -20 3 15 1 70 -5 120 -14 129 -8 235 16 262 39 42
68 21 158 -114 61 -90 99 -115 125 -80 12 17 14 38 7 125 -13 167 -10 201 21
228 45 38 66 17 163 -159 74 -133 105 -165 137 -139 25 21 16 102 -33 295 -49
192 -58 254 -43 284 31 58 81 6 151 -157 26 -63 56 -122 66 -133 26 -28 72
-25 86 6 18 41 -10 137 -112 376 -137 321 -153 381 -108 398 34 12 69 -4 139
-65 47 -40 70 -54 89 -52 37 4 31 43 -23 168 -54 126 -65 171 -43 189 30 25
74 -20 225 -228 121 -166 194 -218 222 -158 11 25 -8 91 -75 262 -44 111 -48
185 -13 210 28 21 68 13 113 -22z m2312 -100 c18 -14 67 -66 108 -116 134
-163 175 -207 206 -223 66 -34 108 23 108 148 0 79 16 118 49 118 27 0 53 -34
121 -160 97 -180 144 -226 213 -213 39 8 44 28 17 75 l-23 41 22 18 c21 17 25
17 51 4 36 -18 108 -128 235 -355 189 -337 275 -437 318 -369 17 27 -15 94
-123 260 -125 191 -146 249 -90 249 53 0 99 -42 220 -204 81 -108 113 -136
139 -119 26 17 25 40 -9 145 -53 163 -21 153 138 -46 87 -110 115 -136 128
-123 4 3 -8 42 -26 84 -41 97 -50 130 -43 149 14 37 58 -3 126 -116 58 -95 83
-122 110 -118 18 2 23 11 25 43 7 84 53 89 110 13 102 -136 237 -424 267 -567
17 -77 7 -111 -30 -111 -37 0 -70 25 -112 84 -72 101 -114 131 -129 91 -8 -20
6 -54 73 -173 29 -53 59 -114 65 -136 11 -36 10 -40 -11 -57 -13 -11 -30 -19
-38 -19 -8 0 -43 27 -77 60 -64 61 -82 70 -104 48 -21 -21 -13 -66 29 -176 95
-248 103 -287 73 -330 -28 -40 -62 -29 -129 43 -94 102 -133 84 -99 -45 16
-64 16 -70 0 -94 -32 -49 -73 -32 -114 49 -23 46 -57 80 -89 89 -31 10 -97
-10 -132 -40 -41 -34 -46 -68 -21 -144 31 -102 24 -140 -26 -140 -35 0 -100
82 -208 263 -111 187 -145 230 -178 225 -39 -5 -45 -48 -20 -131 49 -155 51
-165 38 -182 -10 -14 -22 -6 -92 67 -196 205 -727 909 -1010 1338 -159 242
-210 344 -178 357 32 12 66 -10 130 -88 69 -83 112 -114 144 -104 49 15 28 73
-109 309 -149 255 -177 330 -133 355 22 13 48 5 90 -26z m-1890 -1748 c208
-49 399 -238 488 -481 23 -64 25 -77 13 -85 -20 -12 -166 -11 -214 2 -46 13
-128 63 -183 113 l-39 36 -12 -28 c-68 -151 -201 -301 -201 -226 0 8 18 56 39
107 67 155 65 199 -9 237 -129 66 -358 43 -519 -52 -68 -41 -186 -155 -234
-228 -37 -54 -37 -54 -37 -23 0 108 70 291 148 389 98 122 275 214 472 247 62
10 230 6 288 -8z m4516 -207 c9 -12 16 -32 16 -44 0 -30 -54 -74 -91 -74 -34
0 -33 4 -14 -50 21 -59 20 -59 -24 -16 -53 51 -83 39 -165 -69 -40 -52 -43
-48 -20 38 40 157 119 236 236 237 37 0 50 -5 62 -22z m651 -943 c118 -31 210
-122 267 -263 19 -48 23 -76 23 -172 0 -128 -16 -185 -77 -288 -48 -80 -184
-219 -285 -291 -217 -155 -624 -309 -943 -357 -68 -10 -47 0 75 36 170 51 367
126 514 196 435 208 645 470 604 753 -16 105 -49 189 -92 232 -116 117 -411
77 -546 -73 -109 -121 -113 -286 -14 -483 l40 -80 -56 55 c-71 70 -124 173
-132 257 -16 180 129 376 335 453 111 42 193 49 287 25z m1274 -270 c72 -34
123 -75 174 -143 66 -86 65 -89 -8 -33 -130 100 -224 130 -308 97 -244 -93
-233 -687 18 -1041 23 -33 70 -86 103 -117 l61 -58 -33 0 c-121 0 -272 261
-374 645 -22 85 -26 121 -27 245 0 153 11 210 58 290 74 128 209 174 336 115z
m-2962 -2304 c48 -24 109 -75 123 -102 8 -13 3 -36 -15 -86 -76 -202 -283
-416 -521 -537 -49 -26 -70 -32 -75 -23 -4 6 -9 104 -13 217 -4 113 -9 241
-12 286 l-6 80 58 47 c167 133 344 178 461 118z m526 -62 c53 -14 101 -61 134
-127 23 -48 28 -70 28 -137 0 -71 -4 -88 -33 -148 -38 -77 -127 -173 -218
-234 -73 -50 -174 -107 -179 -102 -10 10 -52 665 -44 675 13 16 104 55 164 70
64 16 100 17 148 3z m-1255 -100 c36 -19 70 -41 76 -51 12 -21 -10 -99 -79
-273 -126 -317 -353 -713 -620 -1085 -115 -160 -239 -319 -231 -295 92 255
211 894 271 1455 9 85 18 165 21 176 3 16 25 31 86 57 46 20 84 34 86 33 1 -2
-2 -43 -8 -92 -16 -132 -25 -589 -12 -598 19 -11 73 256 107 534 9 74 20 138
24 142 3 4 24 14 46 23 64 24 153 14 233 -26z m1791 -174 c62 -53 62 -139 1
-326 -70 -213 -215 -459 -271 -459 -19 0 -7 64 40 223 77 257 94 350 89 478
l-4 109 57 0 c47 0 63 -5 88 -25z m344 -288 c46 -38 48 -42 42 -76 -22 -119
-109 -335 -160 -401 l-27 -35 6 35 c25 131 37 215 52 362 12 114 21 165 28
161 6 -4 33 -24 59 -46z m364 -81 c103 -35 196 -86 299 -165 l89 -68 -3 -49
c-8 -117 -120 -485 -233 -768 -73 -182 -222 -490 -309 -641 -70 -123 -187
-305 -194 -305 -3 0 1 18 9 40 22 63 64 282 85 445 40 315 63 692 76 1279 l6
268 52 -6 c28 -3 84 -17 123 -30z m2668 -211 c748 -102 1367 -187 1375 -188 8
-2 -102 -32 -245 -66 -797 -194 -1515 -401 -1920 -553 -161 -60 -379 -162
-424 -196 -23 -19 -23 -19 95 -26 302 -18 780 -98 1469 -246 475 -102 1215
-274 1242 -289 6 -3 -253 -126 -577 -273 l-589 -268 -123 29 c-197 47 -393 83
-435 79 l-38 -3 75 -45 c129 -76 909 -450 1854 -888 198 -92 353 -168 345
-169 -7 -2 -815 -55 -1794 -118 -979 -63 -1806 -118 -1838 -122 l-57 -8 1685
-829 c927 -456 1684 -830 1682 -832 -2 -2 -856 44 -1898 102 -1041 57 -1914
103 -1938 102 l-43 -3 1738 -1620 c955 -891 1753 -1635 1773 -1654 20 -18 29
-29 21 -23 -8 5 -627 479 -1374 1052 l-1360 1042 -1055 254 c-580 140 -1056
252 -1058 250 -2 -2 293 -295 657 -651 363 -356 660 -649 660 -651 0 -4 -48
18 -744 330 -302 136 -550 245 -552 244 -2 -3 337 -531 553 -862 13 -21 19
-35 11 -30 -7 4 -167 122 -355 261 -187 139 -345 253 -350 253 -4 0 -55 -171
-112 -380 -58 -209 -108 -377 -112 -373 -4 4 -96 226 -204 493 l-196 486 -52
20 -52 20 3 164 c4 176 -10 376 -33 462 -12 47 -11 61 7 138 28 123 36 474 15
660 -31 265 -102 559 -157 648 -38 62 -65 35 -150 -155 -139 -313 -198 -411
-257 -434 -47 -18 -91 30 -127 136 l-21 63 0 -232 c0 -260 -5 -286 -54 -286
-43 0 -75 15 -120 56 -52 47 -52 60 -1 259 22 85 40 167 40 181 0 38 -17 62
-55 78 -63 27 -55 75 41 268 30 59 54 114 54 122 0 21 -26 32 -92 39 -75 7
-81 12 -75 56 14 108 247 535 275 506 15 -15 -16 -254 -58 -448 -11 -50 -20
-93 -20 -96 0 -2 10 5 23 16 58 55 86 25 70 -74 -10 -56 -78 -310 -100 -372
-4 -11 2 -9 20 8 33 30 47 21 48 -32 1 -23 5 1 10 53 32 380 291 993 727 1720
296 493 665 1015 911 1289 71 79 75 82 84 60 12 -33 2 -179 -23 -334 -24 -143
-21 -185 15 -221 48 -48 133 -17 252 91 221 202 474 616 659 1078 37 93 52
118 106 176 35 37 124 148 198 246 74 99 138 182 142 185 4 3 69 21 145 39 76
18 141 36 144 40 4 3 -4 80 -17 170 -13 90 -23 166 -21 167 1 2 26 -9 55 -23
58 -28 121 -35 146 -14 9 7 21 31 26 53 10 36 14 39 38 34 15 -3 639 -89 1387
-191z m-8635 -2160 c68 -184 158 -519 207 -775 l9 -45 20 59 20 59 62 -179
c152 -443 194 -608 160 -642 -31 -31 -139 7 -267 96 l-55 37 3 75 c1 41 9 136
17 210 9 74 17 157 18 184 1 46 -1 50 -29 59 -44 14 -283 14 -329 -1 -22 -6
-42 -10 -44 -7 -16 16 57 498 122 808 20 93 36 171 36 175 0 16 13 -14 50
-113z m3441 -500 c46 -79 85 -420 77 -664 -8 -215 -29 -250 -135 -221 -60 17
-180 96 -253 168 -49 48 -60 64 -60 91 0 107 198 527 298 634 32 34 50 32 73
-8z m-2435 -736 c93 -45 224 -210 465 -586 141 -222 206 -314 227 -321 20 -6
14 57 -12 134 -13 38 -55 150 -94 249 -106 273 -120 330 -73 318 24 -6 70 -50
179 -171 81 -90 122 -116 144 -94 6 6 16 42 22 79 8 49 16 69 28 71 8 2 58
-15 111 -37 52 -23 101 -41 109 -41 22 0 33 17 58 83 14 36 27 57 37 57 9 0
33 -18 53 -40 85 -92 257 -581 430 -1225 34 -126 66 -243 71 -259 16 -52 -31
-81 -94 -57 -32 12 -63 78 -115 246 -46 145 -66 183 -87 165 -8 -7 -17 -33
-21 -58 -11 -77 -36 -112 -79 -112 -29 0 -54 44 -80 140 -34 125 -55 160 -95
160 -48 0 -63 -34 -55 -125 9 -91 -5 -135 -41 -135 -35 0 -81 78 -182 305 -83
187 -114 245 -133 245 -15 0 -10 -28 17 -92 30 -72 33 -113 10 -136 -15 -15
-19 -15 -54 3 -75 40 -297 284 -487 534 -203 268 -354 532 -363 634 -4 48 -2
56 19 71 30 20 34 20 85 -5z m-130 -515 c59 -89 104 -196 104 -249 0 -35 0
-35 -47 -35 -27 -1 -82 -7 -123 -14 -41 -8 -76 -13 -76 -12 -1 1 24 436 25
445 3 14 70 -65 117 -135z m536 -498 c37 -57 68 -139 82 -218 l7 -38 -106 0
c-93 0 -105 2 -105 18 0 9 7 90 16 180 l17 162 25 -22 c14 -13 42 -50 64 -82z
m2819 -471 c14 -191 7 -540 -16 -735 -31 -267 -90 -548 -162 -765 -39 -121
-104 -269 -130 -297 -31 -34 -55 -22 -155 83 -54 55 -103 99 -110 97 -9 -3
-14 -44 -18 -144 -5 -150 -14 -178 -57 -195 -72 -27 -111 37 -138 226 -17 126
-33 165 -65 165 -28 0 -55 -34 -87 -109 -63 -148 -118 -245 -152 -268 -77 -52
-122 -16 -221 177 -79 154 -114 200 -153 200 -49 0 -58 -21 -56 -141 2 -119
-6 -141 -57 -153 -63 -16 -134 45 -343 292 -108 128 -192 205 -250 229 -20 8
-56 13 -85 11 l-51 -3 -32 81 c-106 265 -163 683 -162 1184 l0 215 43 -130
c83 -251 193 -491 334 -725 75 -125 204 -314 221 -325 5 -3 36 10 67 29 l58
35 26 -77 c71 -210 213 -392 304 -392 33 0 62 42 93 133 25 74 73 332 73 393
0 19 3 34 8 33 4 0 40 -56 80 -124 92 -157 211 -317 256 -345 28 -16 40 -19
55 -11 40 22 84 195 98 384 3 48 9 84 14 80 4 -4 42 -124 85 -265 43 -142 79
-256 81 -254 2 2 -2 81 -8 177 -6 95 -9 191 -6 214 8 68 360 839 531 1164 l61
116 7 -50 c4 -27 12 -122 19 -210z"/>
<path d="M16482 7178 c21 -67 824 -550 1393 -838 298 -151 445 -208 445 -171
0 63 -771 527 -1397 839 -305 153 -453 210 -441 170z"/>
<path d="M17135 6113 c-16 -2 -219 -22 -450 -44 -1100 -105 -1645 -176 -1645
-214 0 -85 1247 -928 1737 -1174 115 -58 163 -72 163 -49 0 37 -141 143 -540
406 -835 551 -934 619 -1022 703 -24 23 -38 45 -36 55 8 43 195 74 846 139
688 69 919 102 1001 143 69 34 47 48 -54 35z"/>
<path d="M14345 3621 c-12 -21 34 -58 129 -105 370 -179 1291 -465 1340 -416
17 18 -24 46 -169 115 -252 121 -755 304 -1030 375 -138 36 -258 49 -270 31z"/>
</g>
</svg>
