<?xml version="1.0" standalone="no"?>
<!DOCTYPE svg PUBLIC "-//W3C//DTD SVG 20010904//EN"
 "http://www.w3.org/TR/2001/REC-SVG-20010904/DTD/svg10.dtd">
<svg version="1.0" xmlns="http://www.w3.org/2000/svg"
 width="1266.000000pt" height="1280.000000pt" viewBox="0 0 1266.000000 1280.000000"
 preserveAspectRatio="xMidYMid meet">
<g transform="translate(0.000000,1280.000000) scale(0.100000,-0.100000)"
fill="#000000" stroke="none">
<path d="M12333 12699 c-697 -653 -989 -963 -1225 -1304 -106 -152 -205 -340
-257 -488 -37 -106 -96 -337 -145 -573 -20 -94 -52 -228 -71 -298 -46 -169
-85 -357 -151 -736 -106 -610 -208 -1129 -266 -1350 -410 -1580 -460 -1776
-557 -2210 -120 -532 -163 -688 -346 -1237 -158 -474 -182 -579 -173 -763 5
-100 20 -144 54 -157 35 -13 47 22 55 154 13 209 39 328 85 388 71 94 219 618
523 1855 102 418 219 872 382 1490 164 620 206 803 250 1090 83 547 189 1022
435 1960 96 364 105 392 175 530 132 260 374 581 705 933 369 393 416 444 442
484 45 70 62 56 80 -67 27 -180 50 -464 82 -1000 23 -376 35 -537 54 -720 14
-129 9 -235 -15 -308 -31 -96 -45 -113 -399 -497 -533 -578 -1200 -1365 -1157
-1365 6 0 261 283 578 640 480 543 860 950 885 950 23 0 17 -33 -45 -280 -92
-361 -128 -479 -165 -535 -56 -85 -246 -324 -555 -700 -264 -320 -434 -530
-465 -575 -5 -8 9 3 33 25 46 43 261 286 558 630 209 243 333 375 351 375 6 0
12 -10 12 -22 0 -38 -97 -352 -330 -1068 -156 -480 -191 -592 -186 -598 3 -2
11 18 19 45 18 61 120 325 158 409 29 67 49 82 49 39 0 -15 -31 -152 -70 -305
-38 -154 -95 -398 -126 -542 -64 -301 -128 -534 -209 -763 -122 -347 -145
-414 -178 -525 -19 -63 -49 -185 -67 -270 -18 -85 -37 -161 -44 -167 -6 -7
-72 -19 -152 -28 -203 -21 -238 -30 -273 -71 -39 -44 -67 -138 -81 -271 -30
-281 -58 -324 -255 -394 -49 -17 -115 -44 -145 -59 -233 -118 -379 -350 -455
-725 -14 -67 -25 -149 -25 -182 0 -92 -45 -132 -112 -98 -42 20 -91 19 -201
-6 -80 -18 -107 -20 -207 -13 -189 14 -353 9 -495 -14 -153 -25 -330 -42 -435
-42 -112 0 -211 11 -207 23 2 6 52 21 113 33 60 12 172 39 249 59 105 29 166
39 245 43 58 2 111 9 118 14 19 16 14 52 -15 94 -93 138 -185 530 -187 804 -1
167 18 230 65 215 17 -6 19 -1 19 62 0 150 -87 390 -179 496 -47 55 -129 179
-199 303 -108 191 -295 448 -487 674 -133 156 -154 191 -166 277 -5 37 -21 95
-36 128 -31 70 -39 133 -52 400 -7 140 -19 254 -41 379 -27 157 -29 181 -16
194 27 27 171 37 359 24 269 -19 283 -18 321 21 75 75 107 369 58 540 -30 107
-71 193 -152 322 -76 122 -91 161 -66 171 9 4 24 -4 39 -22 l23 -27 23 24 c12
13 42 65 67 116 25 50 62 111 83 135 21 23 46 59 56 78 10 19 33 50 51 68 20
20 36 46 40 70 8 45 16 62 63 131 l36 53 5 182 5 182 40 46 c22 25 87 97 144
159 246 271 327 416 566 1018 176 444 242 650 264 826 9 75 4 146 -13 173 -22
36 -119 -29 -191 -128 -54 -74 -699 -720 -883 -885 -68 -61 -143 -122 -167
-136 -25 -14 -53 -33 -63 -42 -28 -26 -41 -21 -117 39 -84 67 -410 286 -478
321 -27 13 -94 35 -150 49 -110 27 -371 107 -582 177 l-130 44 -145 -8 c-615
-34 -629 -36 -807 -112 -251 -107 -234 -108 -549 45 -326 159 -581 275 -1124
511 -323 141 -679 319 -733 367 -56 49 -109 125 -160 226 -55 110 -126 154
-173 107 -25 -25 -14 -163 30 -398 113 -592 249 -967 433 -1192 21 -25 74 -76
118 -113 44 -37 159 -141 255 -231 194 -182 275 -252 367 -323 82 -62 112
-102 122 -166 11 -66 -2 -72 -77 -36 -99 47 -256 59 -402 31 -41 -8 -149 -26
-240 -40 -326 -51 -417 -67 -545 -100 -425 -109 -834 -304 -1345 -640 -588
-387 -1060 -846 -1060 -1030 0 -34 10 -57 54 -122 63 -93 106 -175 106 -200 0
-10 9 -33 20 -51 28 -46 25 -59 -18 -81 -82 -42 -143 -45 -436 -26 -319 21
-335 19 -391 -50 l-36 -44 46 -136 c98 -291 301 -766 500 -1170 182 -371 228
-438 383 -563 48 -38 204 -149 347 -247 539 -369 491 -321 980 -975 142 -190
301 -398 354 -464 161 -200 319 -405 461 -597 171 -233 258 -342 437 -551 79
-92 143 -171 143 -176 0 -5 -18 -52 -40 -104 -55 -133 -71 -216 -77 -408 -4
-138 -2 -185 15 -285 51 -296 177 -563 370 -780 253 -286 410 -346 912 -349
312 -2 327 -11 226 -135 -29 -36 -86 -115 -126 -176 -40 -60 -104 -153 -141
-205 -115 -163 -144 -244 -100 -284 11 -10 22 -13 25 -7 7 11 233 135 385 211
57 28 253 112 435 185 182 74 414 168 516 209 102 42 207 80 233 85 65 12 101
2 105 -30 2 -21 -23 -49 -147 -168 -159 -150 -257 -269 -286 -345 -20 -53 -16
-72 21 -88 39 -18 119 6 357 108 111 48 229 95 261 106 33 11 137 54 230 95
94 41 198 85 231 97 33 12 116 57 185 101 316 198 372 233 504 310 195 114
416 232 449 240 51 13 30 -27 -86 -157 -122 -137 -143 -168 -134 -192 16 -41
111 6 297 145 318 237 653 445 935 579 296 141 491 241 538 275 53 40 67 66
67 129 0 53 30 86 80 86 45 0 190 -68 190 -89 0 -9 -20 -27 -45 -40 -25 -13
-44 -26 -42 -27 2 -2 37 7 78 21 41 14 106 30 144 36 132 20 248 77 584 287
226 141 291 172 456 217 422 117 560 185 753 369 159 152 284 321 383 516 l52
105 -17 450 c-19 506 -29 634 -56 741 -34 132 -97 229 -271 413 -75 80 -90 91
-142 106 -36 10 -74 31 -103 56 -84 72 -157 99 -344 124 -131 17 -170 30 -170
55 0 9 20 84 46 166 99 325 176 627 313 1220 106 462 189 794 306 1229 258
960 417 1573 445 1720 6 33 32 150 56 259 51 228 86 436 109 646 19 178 23
205 37 253 10 32 8 44 -10 85 -28 61 -43 175 -62 462 -18 261 -146 1378 -161
1394 -4 5 -43 -25 -86 -65z m-8988 -734 c22 -12 90 -52 150 -89 155 -95 480
-257 745 -371 124 -53 320 -142 435 -197 116 -55 271 -127 345 -160 359 -159
470 -235 646 -448 102 -122 132 -152 144 -145 25 15 -19 183 -82 312 -25 51
-37 89 -34 101 14 43 213 121 414 162 142 29 376 53 448 47 34 -4 137 -31 230
-61 93 -30 223 -68 289 -85 266 -67 389 -121 530 -231 59 -47 105 -75 134 -82
88 -22 204 -169 378 -477 83 -146 122 -249 153 -399 34 -167 44 -313 31 -473
-13 -157 -33 -223 -73 -238 -13 -4 -72 -11 -133 -15 -60 -4 -130 -11 -155 -17
-25 -5 -66 -12 -91 -16 -45 -5 -48 -4 -103 46 -31 28 -65 51 -76 51 -10 0 -54
-19 -97 -42 -43 -22 -102 -54 -132 -70 -90 -47 -179 -35 -234 33 -15 19 -51
70 -79 113 -47 73 -60 85 -162 151 -141 91 -364 220 -520 299 -121 61 -121 62
-163 131 -49 81 -68 98 -94 84 -24 -12 -24 -33 1 -88 35 -76 119 -168 252
-274 70 -56 131 -110 134 -120 4 -12 -3 -28 -19 -45 -38 -41 -47 -66 -47 -127
0 -110 70 -249 143 -284 53 -25 226 -60 337 -67 107 -8 156 5 215 56 52 45 60
47 165 53 57 3 92 12 143 35 37 17 73 29 80 26 7 -2 30 -39 52 -81 65 -128
185 -320 283 -457 159 -220 212 -357 211 -541 0 -125 -21 -183 -74 -210 -35
-17 -58 -19 -175 -18 -192 3 -269 20 -409 92 -64 32 -161 75 -216 96 -126 47
-182 87 -378 271 -337 319 -416 384 -458 384 -19 0 -21 -4 -16 -39 7 -56 -10
-77 -51 -63 -18 6 -53 25 -79 43 -132 89 -193 162 -239 284 -14 39 -30 76 -36
83 -13 15 -44 16 -53 2 -10 -15 -6 -283 5 -423 14 -169 36 -296 71 -402 58
-173 125 -256 274 -340 50 -27 103 -62 120 -76 16 -14 48 -30 70 -37 22 -6 81
-35 130 -63 101 -58 162 -85 218 -94 24 -4 54 -21 87 -50 52 -46 137 -98 260
-160 104 -52 187 -111 203 -143 31 -62 48 -171 77 -506 13 -157 16 -234 9
-247 -24 -45 -82 -31 -264 65 -207 108 -380 232 -418 300 -6 12 -12 61 -12
111 0 82 -2 90 -20 93 -14 2 -32 -12 -58 -43 -21 -25 -43 -43 -48 -39 -5 3
-22 33 -38 67 -15 34 -50 89 -78 122 -57 68 -83 114 -83 147 0 36 -14 50 -43
43 -16 -4 -40 0 -64 11 -24 12 -184 165 -433 415 -217 218 -414 409 -438 424
-26 17 -62 56 -91 100 -58 87 -81 166 -111 380 -11 83 -30 188 -41 235 -11 46
-24 124 -29 172 -5 49 -16 103 -25 120 -25 51 -10 57 153 65 135 6 141 7 126
24 -26 29 -103 56 -209 73 -178 30 -418 124 -538 212 -63 46 -94 112 -146 310
-78 298 -139 407 -264 475 -90 48 -132 90 -230 233 -128 185 -190 258 -274
321 -159 120 -277 252 -337 378 -57 119 -182 549 -216 745 -17 97 3 109 95 57z
m6027 -405 c-13 -102 -192 -562 -277 -710 -21 -36 -89 -164 -152 -285 -119
-227 -200 -360 -251 -408 -16 -15 -58 -47 -93 -70 -70 -46 -80 -69 -34 -77 40
-8 38 -37 -8 -116 -47 -80 -71 -109 -85 -100 -6 3 -13 37 -17 74 -10 103 -30
145 -144 296 -59 78 -114 153 -123 167 -20 31 -51 156 -42 170 3 5 21 16 41
24 132 55 678 532 884 773 131 152 271 293 289 289 10 -1 14 -11 12 -27z
m-2278 -2429 c29 -32 12 -58 -46 -76 -86 -25 -158 -19 -158 15 0 58 163 107
204 61z m1076 -165 c0 -21 -145 -172 -180 -186 -45 -19 -56 -9 -64 57 -8 72 1
82 112 117 89 29 132 33 132 12z m-5535 -101 c33 -8 97 -33 142 -56 76 -37
122 -70 288 -210 117 -98 238 -137 277 -90 35 44 16 168 -36 236 -29 38 -34
65 -11 65 9 0 70 -20 137 -45 152 -56 224 -76 411 -115 173 -36 284 -69 382
-115 79 -36 126 -78 107 -97 -8 -8 -37 -1 -114 26 -132 48 -223 67 -323 68
-82 2 -125 -11 -125 -37 0 -15 37 -27 140 -45 302 -51 659 -212 895 -403 116
-95 275 -278 275 -318 0 -23 8 -24 -131 6 -267 57 -446 85 -534 85 -49 0 -290
9 -535 21 -506 25 -608 22 -1115 -31 -154 -16 -336 -34 -405 -39 -167 -13
-827 -33 -965 -29 l-110 3 -33 62 c-40 76 -62 172 -62 274 0 62 5 85 25 123
14 26 25 58 25 71 0 43 19 74 53 88 18 8 52 37 75 65 72 86 157 103 239 48 45
-31 58 -32 123 -6 28 11 55 20 59 20 5 0 39 -41 75 -90 39 -54 77 -95 93 -101
18 -7 49 -7 97 1 161 25 202 74 194 234 -3 60 -11 104 -23 128 l-18 37 29 42
c32 46 113 111 159 127 45 16 173 14 240 -3z m3636 -471 c166 -111 149 -78
149 -288 0 -183 -8 -244 -35 -266 -18 -15 -55 6 -80 43 -39 61 -171 450 -182
540 -5 42 -4 47 15 47 11 0 71 -34 133 -76z m351 -300 c26 -38 59 -93 74 -122
24 -48 25 -55 12 -69 -14 -13 -19 -13 -45 1 -59 30 -123 140 -123 209 0 80 18
75 82 -19z m119 -264 c30 -6 60 -18 67 -27 7 -10 12 -48 12 -94 0 -128 -33
-146 -135 -77 -61 42 -85 74 -92 125 -4 33 -1 45 16 62 23 23 52 26 132 11z
m-2741 -88 c129 -22 312 -50 405 -62 338 -42 747 -130 857 -186 29 -15 78 -50
109 -78 32 -30 73 -57 96 -64 72 -22 258 -175 382 -316 67 -75 74 -96 36 -96
-14 0 -25 -3 -25 -7 0 -20 225 -300 465 -578 126 -145 225 -274 225 -292 0
-24 -35 -13 -145 47 -204 112 -329 169 -403 186 -180 40 -680 333 -1084 635
-222 166 -273 196 -357 206 -97 12 -655 8 -811 -6 -300 -26 -576 -73 -774
-131 -221 -64 -329 -123 -576 -315 -326 -253 -473 -384 -699 -619 -218 -227
-283 -300 -304 -342 -9 -17 -23 -34 -30 -37 -21 -8 -55 19 -59 45 -2 16 -35
45 -108 95 -150 103 -171 132 -393 544 -181 334 -227 453 -248 639 -15 135 -7
175 46 226 36 35 53 43 107 53 127 22 348 7 460 -30 73 -24 93 -25 83 -1 -22
51 -18 72 24 117 25 27 41 54 41 69 0 27 22 53 55 66 30 11 179 27 370 40 679
45 1433 144 1710 225 84 24 273 13 545 -33z m3280 -5 c32 -13 55 -28 55 -37 0
-20 -34 -15 -102 15 -96 43 -53 63 47 22z m-128 -197 c99 -97 141 -131 166
-136 39 -8 72 -46 72 -85 0 -48 -37 -43 -97 14 -29 28 -34 29 -62 18 -24 -10
-35 -10 -58 1 -25 12 -28 18 -28 66 0 28 -3 52 -6 52 -4 0 -23 -7 -44 -16 -67
-28 -92 6 -116 158 -17 108 -7 104 173 -72z m162 58 c57 -16 67 -26 64 -62 -5
-49 -41 -47 -94 5 -66 65 -57 82 30 57z m-6589 -113 c180 -38 153 -118 -40
-118 -97 -1 -176 23 -206 61 -17 22 -31 28 -77 32 -60 5 -78 24 -40 40 32 14
275 4 363 -15z m5037 -186 c71 -72 105 -124 88 -134 -6 -3 -23 3 -38 14 -42
30 -172 169 -172 184 0 43 35 25 122 -64z m434 -295 c89 -59 174 -163 203
-246 37 -107 -1 -100 -106 20 -113 129 -169 212 -159 238 8 20 18 18 62 -12z
m-2181 -396 c41 -22 63 -48 129 -153 31 -49 77 -118 101 -153 56 -80 57 -104
5 -153 -45 -43 -431 -242 -452 -233 -7 3 -31 28 -52 55 -21 28 -50 56 -63 62
-40 18 -48 -2 -45 -113 l3 -99 -36 -39 c-33 -37 -89 -72 -114 -72 -17 0 -99
79 -131 125 -16 23 -33 60 -40 84 -6 24 -27 72 -46 108 -40 76 -43 118 -14
199 22 63 91 179 144 240 56 66 192 129 334 154 74 14 242 6 277 -12z m2959
-168 c119 -71 349 -181 436 -208 130 -40 175 -68 252 -156 96 -111 310 -397
401 -536 199 -305 338 -633 338 -802 1 -108 -22 -139 -214 -294 -54 -43 -121
-98 -149 -121 -63 -51 -263 -157 -283 -149 -11 4 -15 22 -15 63 -1 157 -45
285 -231 668 -300 619 -372 785 -342 785 6 0 43 -29 84 -65 89 -79 112 -84 73
-17 -41 70 -100 157 -171 251 -78 102 -127 197 -192 373 -28 73 -61 159 -75
191 -14 32 -26 60 -26 62 0 16 42 -1 114 -45z m-1271 -236 c173 -87 551 -317
707 -428 63 -46 158 -111 210 -146 131 -87 202 -142 290 -223 41 -39 106 -91
145 -117 38 -26 80 -58 91 -71 32 -35 84 -121 84 -138 0 -8 -14 -30 -32 -48
-32 -33 -32 -33 -20 -86 52 -226 54 -241 49 -355 -4 -100 -8 -120 -33 -169
-35 -68 -76 -93 -151 -93 -57 0 -80 8 -162 58 -80 47 -118 43 -135 -16 -21
-66 142 -268 234 -291 25 -6 79 -28 121 -48 90 -42 98 -41 209 23 42 24 83 44
89 44 29 0 -19 -184 -93 -355 -32 -75 -34 -135 -6 -160 12 -11 20 -28 18 -39
-4 -27 -38 -33 -256 -42 l-172 -7 6 84 c11 145 -25 272 -105 373 -21 26 -92
137 -157 245 -65 108 -157 257 -204 331 -97 151 -171 284 -282 505 -42 83
-122 231 -178 330 -147 257 -148 264 -73 320 62 47 163 136 163 145 0 11 -47
-3 -175 -50 -58 -22 -112 -40 -120 -40 -21 0 -100 125 -130 205 -31 80 -32
147 -5 184 17 26 18 30 4 50 -16 23 -13 51 6 51 6 0 34 -12 63 -26z m-1175
-266 c22 -22 12 -56 -30 -108 -80 -98 -100 -128 -94 -139 13 -21 72 -11 145
24 83 40 97 42 110 17 20 -37 -30 -86 -334 -327 -109 -87 -296 -239 -413 -338
-310 -259 -371 -307 -396 -307 -21 0 -60 34 -104 94 -17 22 -22 43 -22 86 0
75 -22 97 -100 102 -68 4 -71 14 -35 103 14 36 30 102 35 147 14 123 42 156
254 298 168 113 276 143 594 170 68 5 139 17 160 25 20 9 71 49 113 90 77 76
95 85 117 63z m156 -481 c44 -23 81 -47 83 -53 2 -6 -34 -39 -80 -72 -46 -34
-98 -77 -116 -97 -36 -42 -42 -89 -12 -105 23 -12 46 -5 141 44 36 19 97 44
137 56 68 20 93 20 93 0 0 -9 -714 -544 -864 -648 -49 -34 -98 -62 -108 -62
-30 0 -32 28 -4 68 15 22 26 52 26 70 l0 32 -117 -2 c-132 -2 -193 12 -193 42
0 21 126 135 412 373 209 174 497 397 512 397 6 -1 47 -20 90 -43z m301 -390
c32 -24 12 -62 -65 -118 -39 -28 -75 -59 -80 -69 -16 -31 -11 -76 12 -105 19
-24 26 -27 69 -23 34 4 66 17 112 46 35 23 71 42 80 42 59 0 8 -53 -289 -300
-214 -179 -303 -256 -506 -441 -278 -255 -361 -300 -403 -220 -8 16 -33 42
-56 58 -32 21 -45 39 -55 71 -6 23 -28 60 -48 82 -20 22 -36 44 -36 49 0 10
139 137 260 237 270 224 934 704 973 704 7 0 21 -6 32 -13z m6505 -32 c195
-61 277 -94 306 -124 13 -14 37 -39 53 -56 15 -16 43 -39 62 -50 24 -14 38
-34 51 -70 10 -30 31 -62 52 -80 48 -41 65 -88 78 -215 12 -109 20 -127 33
-69 9 42 36 34 54 -16 17 -50 18 -262 2 -400 -18 -150 -59 -321 -96 -401 -18
-39 -64 -120 -102 -180 -39 -60 -104 -174 -144 -253 -123 -239 -203 -306 -394
-331 -181 -23 -519 -120 -688 -197 -53 -24 -105 -43 -115 -41 -13 2 -24 30
-44 108 -15 58 -39 139 -54 180 -39 113 -169 358 -274 520 -114 174 -177 296
-186 359 -10 67 -18 74 -65 51 -21 -11 -50 -20 -64 -20 -22 0 -25 4 -25 35 0
67 85 255 172 382 137 199 268 243 475 161 46 -19 63 -33 94 -76 51 -74 107
-130 153 -154 52 -26 137 -21 168 10 21 21 21 21 3 83 -21 70 -18 92 45 259
23 62 33 108 37 170 5 78 3 88 -19 120 -13 19 -35 41 -50 49 -25 14 -28 13
-66 -21 -22 -20 -50 -39 -62 -43 -78 -25 -158 74 -130 160 22 67 68 86 365
154 94 21 184 39 200 40 17 1 95 -19 175 -44z m-6095 -369 c33 -18 69 -26 135
-32 50 -3 90 -10 90 -15 0 -5 -36 -27 -79 -49 -94 -47 -146 -90 -156 -127 -3
-15 -27 -55 -51 -88 -25 -33 -47 -70 -51 -83 -10 -43 6 -89 44 -123 l37 -32
143 7 c116 5 143 4 143 -7 0 -17 -110 -123 -170 -164 -25 -17 -81 -49 -125
-71 -156 -79 -198 -122 -196 -202 1 -59 -8 -69 -94 -110 -71 -34 -109 -80
-103 -127 4 -39 35 -50 153 -59 55 -3 106 -11 113 -17 20 -16 15 -101 -9 -130
-25 -32 -63 -43 -199 -57 -116 -11 -157 -21 -368 -86 -79 -24 -152 -44 -162
-44 -55 0 -65 34 -25 82 14 16 25 37 25 46 0 24 -23 102 -59 202 -32 88 -40
166 -21 214 5 14 30 50 55 81 25 31 45 60 45 66 0 24 -33 69 -99 134 -39 38
-71 75 -71 82 0 14 289 265 495 430 229 183 422 302 492 303 12 0 42 -11 68
-24z m2609 -737 c141 -106 182 -148 196 -201 16 -56 3 -115 -30 -139 -30 -23
-437 -76 -454 -59 -6 6 -5 37 2 87 6 43 14 114 18 158 4 44 13 94 21 110 20
41 103 125 124 125 9 0 64 -36 123 -81z m511 -274 c0 -36 -2 -40 -25 -40 -20
0 -26 6 -28 28 -5 42 5 59 30 55 20 -3 23 -9 23 -43z m1443 -157 c6 -48 -81
-123 -102 -89 -16 25 54 124 83 119 9 -2 17 -15 19 -30z m140 -195 c91 -130
134 -202 191 -325 58 -122 104 -255 126 -357 15 -74 23 -186 13 -196 -3 -3
-31 -12 -63 -20 -32 -9 -96 -39 -143 -67 -97 -59 -154 -71 -188 -42 -12 11
-46 73 -75 139 -29 66 -120 254 -203 418 -128 257 -148 302 -140 324 14 40 52
62 139 79 99 20 138 40 195 98 24 25 52 46 62 46 10 0 44 -38 86 -97z m-853
23 c38 -40 85 -130 85 -162 0 -11 -15 -54 -34 -95 -45 -97 -132 -353 -156
-455 -23 -98 -257 -654 -276 -654 -3 0 -39 34 -79 75 -94 98 -118 99 -213 13
-53 -49 -78 -58 -155 -58 -90 -1 -142 -14 -189 -46 -34 -24 -51 -29 -102 -29
-41 0 -71 -6 -88 -17 -81 -53 -329 -317 -369 -393 -18 -35 -21 -47 -12 -56 14
-14 34 -6 92 36 l33 24 39 -19 c52 -27 77 -25 130 9 57 36 124 58 219 71 150
22 176 30 241 75 50 36 71 45 105 45 93 0 120 -36 67 -89 -66 -65 -667 -478
-976 -670 -167 -104 -413 -228 -563 -284 -56 -20 -104 -37 -107 -37 -21 0 4
34 96 129 81 85 111 124 144 191 73 146 336 481 677 863 186 209 306 354 306
372 0 20 67 150 149 289 173 292 190 343 199 588 l7 173 105 23 c237 53 556
121 574 121 10 1 33 -15 51 -33z m-1801 -42 c9 -8 16 -29 16 -45 0 -57 -109
-318 -157 -378 -29 -35 -47 -19 -39 33 13 87 -45 101 -384 92 -498 -13 -946
-86 -1183 -192 -83 -38 -132 -42 -151 -12 -8 13 -6 22 9 38 80 88 842 322
1400 429 231 45 259 49 372 50 80 1 105 -2 117 -15z m616 -69 c58 -8 146 -15
196 -15 70 0 95 -4 104 -15 10 -12 12 -54 7 -178 -5 -141 -9 -174 -33 -245
-54 -164 -245 -481 -389 -645 -115 -132 -137 -142 -265 -111 -36 8 -94 17
-130 19 -54 3 -67 7 -82 27 -37 51 -48 58 -86 58 -27 0 -51 -9 -82 -32 -39
-29 -51 -33 -99 -31 -29 2 -73 -4 -97 -12 -55 -18 -93 -6 -94 31 0 7 48 76
106 155 255 346 387 569 454 765 48 142 63 162 161 222 53 33 56 33 139 28 47
-3 132 -12 190 -21z m1422 -212 c9 -16 33 -68 53 -118 21 -49 73 -161 116
-248 44 -86 79 -168 79 -180 0 -33 -34 -61 -73 -60 -18 1 -64 15 -104 32 -39
17 -78 28 -87 25 -8 -3 -47 -48 -86 -100 -39 -52 -75 -94 -80 -94 -17 0 -11
43 16 121 23 65 27 97 34 264 8 178 18 245 50 330 24 62 55 73 82 28z m-3477
-327 c11 -8 31 -42 45 -77 14 -36 36 -71 52 -82 26 -20 30 -20 80 -5 29 9 94
33 143 54 72 30 106 38 173 42 97 5 103 -4 35 -51 -179 -123 -202 -219 -62
-257 105 -29 -15 -119 -208 -156 -78 -15 -97 -11 -144 27 l-27 21 -55 -25
c-30 -14 -60 -33 -65 -44 -5 -10 -12 -68 -16 -129 -3 -62 -11 -126 -17 -143
-13 -38 -5 -87 18 -113 20 -22 84 -24 143 -3 52 18 50 18 50 -1 0 -23 -44 -71
-179 -198 -154 -145 -200 -181 -211 -170 -6 6 0 31 16 64 64 139 88 294 87
565 0 224 -19 376 -63 504 -34 103 -27 116 88 163 77 32 91 33 117 14z m-1569
-240 c3 -7 -2 -31 -11 -52 -41 -98 -24 -274 36 -369 46 -73 41 -78 -84 -92
-131 -14 -166 -25 -202 -63 -52 -54 -80 -34 -115 79 -25 78 -26 149 -4 158 8
3 28 -3 43 -15 l28 -20 -5 78 c-7 130 33 188 192 272 75 39 113 47 122 24z
m5420 -241 c24 -55 30 -100 16 -121 -6 -10 -182 -123 -366 -235 -43 -27 -103
-57 -132 -69 -30 -11 -93 -50 -141 -86 -91 -70 -224 -141 -243 -129 -17 10
-12 40 20 122 48 122 178 380 195 387 8 3 15 2 16 -2 0 -4 1 -24 3 -44 3 -41
20 -68 43 -68 7 0 45 29 83 65 45 43 77 65 93 65 13 0 43 15 67 33 76 57 92
65 153 76 35 6 76 22 96 36 54 38 68 33 97 -30z m632 -36 c4 -24 -23 -47 -69
-59 -40 -11 -74 -3 -61 15 35 52 123 81 130 44z m-248 -159 c0 -21 -45 -50
-80 -50 -30 0 -25 32 8 52 38 24 72 23 72 -2z m-2912 -314 c11 -10 11 -19 3
-34 -29 -55 -422 -329 -726 -507 -338 -198 -458 -272 -532 -327 -78 -58 -389
-219 -491 -255 -52 -18 -54 -18 -68 1 -32 44 -12 82 127 251 109 130 445 466
534 533 105 78 229 138 306 147 35 4 94 20 130 36 56 24 78 28 137 26 66 -2
72 0 111 31 53 43 98 61 137 55 21 -3 54 5 100 25 38 17 83 33 99 35 46 8 118
-2 133 -17z m-2749 -140 c14 -34 -4 -97 -34 -123 -49 -42 -155 -22 -155 30 0
41 95 117 147 117 26 0 35 -5 42 -24z m183 -43 c79 -87 86 -128 32 -191 -40
-48 -85 -57 -104 -23 -21 41 -7 193 22 229 15 17 21 15 50 -15z m696 -966 c5
-26 -24 -55 -90 -88 -66 -33 -88 -36 -88 -11 0 18 68 90 105 111 29 16 69 9
73 -12z"/>
<path d="M5016 10752 c-9 -16 42 -109 89 -162 57 -64 127 -205 185 -375 48
-140 76 -191 143 -262 55 -59 100 -79 140 -64 34 13 47 40 47 96 0 131 -160
376 -410 628 -138 138 -177 166 -194 139z"/>
<path d="M12058 10378 c-300 -306 -1047 -1229 -1224 -1513 -18 -28 -18 -29 0
-16 23 19 250 290 561 671 290 354 435 526 590 700 165 185 211 250 175 250
-6 0 -52 -42 -102 -92z"/>
</g>
</svg>
